<?xml version="1.0" encoding="UTF-8"?>
<svg version="1.1" xmlns="http://www.w3.org/2000/svg" width="215" height="215">
<path d="M0 0 C3.24862034 1.72496156 3.24862034 1.72496156 6.76953125 2.41015625 C9.10463146 1.26006386 9.10463146 1.26006386 11.33203125 -0.46484375 C16.60999135 -4.29203235 21.22022136 -5.62896279 27.76953125 -4.58984375 C33.08293916 -2.44999546 38.0074443 0.23543162 42.76953125 3.41015625 C44.57360545 3.7150702 46.38865031 3.95730897 48.20703125 4.16015625 C57.3059189 5.58116897 65.87830927 9.39669728 72.2109375 16.23046875 C74.16274436 18.96006331 75.54163753 21.83623045 77.01953125 24.84765625 C80.12124209 30.97406027 83.50902305 33.81687518 89.1796875 37.51953125 C93.2192948 40.46850551 95.47692332 44.02768803 97.76953125 48.41015625 C98.10726562 49.01085937 98.445 49.6115625 98.79296875 50.23046875 C102.09999796 57.23894351 102.23404799 66.8318922 99.90234375 74.12109375 C98.76784252 76.4149393 97.59680839 78.58287911 95.76953125 80.41015625 C95.52205516 82.55395513 95.29699268 84.70035337 95.08203125 86.84765625 C93.78771912 96.20286816 90.15122988 103.35500122 82.59765625 109.16796875 C76.09433112 113.5868948 70.36420265 115.04283625 62.52734375 116.015625 C59.81590532 116.25528603 59.81590532 116.25528603 57.76953125 117.41015625 C57.76953125 116.75015625 57.76953125 116.09015625 57.76953125 115.41015625 C54.4812689 116.44361013 52.88298307 117.28095845 50.57421875 119.91015625 C47.1901993 122.92655242 44.43292 123.37239072 40.08203125 123.72265625 C39.40591797 123.79548828 38.72980469 123.86832031 38.03320312 123.94335938 C35.60905927 124.19662814 33.20813938 124.41015625 30.76953125 124.41015625 C30.76953125 125.07015625 30.76953125 125.73015625 30.76953125 126.41015625 C21.38920222 129.47312083 5.87736219 130.96407172 -3.23046875 126.41015625 C-3.23046875 125.75015625 -3.23046875 125.09015625 -3.23046875 124.41015625 C-3.89046875 124.41015625 -4.55046875 124.41015625 -5.23046875 124.41015625 C-5.23046875 123.75015625 -5.23046875 123.09015625 -5.23046875 122.41015625 C-6.71546875 122.90515625 -6.71546875 122.90515625 -8.23046875 123.41015625 C-9.22046875 123.41015625 -10.21046875 123.41015625 -11.23046875 123.41015625 C-13.51795568 125.06255683 -15.68306234 126.74270459 -17.85546875 128.53515625 C-23.13747631 132.79928408 -28.47187583 136.7996099 -34.23046875 140.41015625 C-34.89046875 140.08015625 -35.55046875 139.75015625 -36.23046875 139.41015625 C-35.88306536 131.55883957 -33.94594969 124.7609 -31.23046875 117.41015625 C-32.08769531 117.49394531 -32.94492188 117.57773438 -33.828125 117.6640625 C-34.97152344 117.76589844 -36.11492187 117.86773437 -37.29296875 117.97265625 C-38.98099609 118.12927734 -38.98099609 118.12927734 -40.703125 118.2890625 C-51.97629431 118.67607053 -65.82369619 114.94401592 -74.40234375 107.34765625 C-81.18540674 100.15876897 -83.69434472 92.77295763 -85.68359375 83.23828125 C-86.51038132 80.47444853 -88.43476241 78.64118534 -90.23046875 76.41015625 C-93.76794423 68.59047361 -93.2556034 61.61486843 -91.23046875 53.41015625 C-87.38202448 43.74267877 -81.17340006 38.09246577 -73.16796875 31.78515625 C-70.67477388 28.72898189 -69.57026662 25.54280604 -68.2578125 21.84765625 C-67.19525848 19.32661552 -66.0489911 17.45068003 -64.23046875 15.41015625 C-63.57046875 15.41015625 -62.91046875 15.41015625 -62.23046875 15.41015625 C-62.23046875 14.75015625 -62.23046875 14.09015625 -62.23046875 13.41015625 C-60.25390625 11.97265625 -60.25390625 11.97265625 -57.60546875 10.41015625 C-56.74695312 9.89453125 -55.8884375 9.37890625 -55.00390625 8.84765625 C-49.66519782 6.08055104 -45.28278822 5.23957927 -39.29296875 5.16015625 C-33.49027631 4.83170196 -30.83080708 4.06347047 -26.8671875 -0.08984375 C-18.68780983 -7.58597985 -8.61254948 -4.67664753 0 0 Z M-23.23046875 10.41015625 C-23.89046875 11.44140625 -24.55046875 12.47265625 -25.23046875 13.53515625 C-27.23046875 16.41015625 -27.23046875 16.41015625 -29.41796875 17.28515625 C-32.23046875 17.41015625 -32.23046875 17.41015625 -34.19921875 17.3125 C-41.33333899 17.02361837 -47.68668936 18.36472084 -53.23046875 23.12890625 C-55.4851994 25.59151463 -55.4851994 25.59151463 -57.23046875 28.41015625 C-56.90046875 29.40015625 -56.57046875 30.39015625 -56.23046875 31.41015625 C-52.043028 31.46855849 -47.8556931 31.50388791 -43.66796875 31.53515625 C-41.89583008 31.56029297 -41.89583008 31.56029297 -40.08789062 31.5859375 C-34.07650116 31.61961475 -28.88863753 31.52054519 -23.23046875 29.41015625 C-23.14796875 28.68828125 -23.06546875 27.96640625 -22.98046875 27.22265625 C-22.03430444 23.67454011 -20.93683312 21.90286027 -18.23046875 19.41015625 C-14.72865661 18.91867384 -12.43381201 18.75025833 -9.29296875 20.47265625 C-7.55746443 23.63739942 -7.74995593 25.86637419 -8.23046875 29.41015625 C-11.31750066 34.83907444 -15.04162502 36.71972626 -20.91015625 38.59765625 C-32.10696229 41.33758055 -43.36233852 41.70736901 -54.83544922 41.16113281 C-60.90558672 40.98941414 -66.1128902 41.93772183 -71.23046875 45.41015625 C-71.56046875 46.40015625 -71.89046875 47.39015625 -72.23046875 48.41015625 C-73.71546875 48.90515625 -73.71546875 48.90515625 -75.23046875 49.41015625 C-79.19642916 54.37092278 -79.67284745 59.74506801 -79.6640625 65.89453125 C-79.10850775 69.1177498 -78.68972434 70.19894824 -76.23046875 72.41015625 C-72.93305026 73.07272057 -69.65159496 73.04224897 -66.296875 73.046875 C-65.30856186 73.05781693 -64.32024872 73.06875885 -63.30198669 73.08003235 C-61.20471407 73.09591554 -59.10733737 73.10108879 -57.01000977 73.09643555 C-53.83493441 73.09764033 -50.66459281 73.15715166 -47.49023438 73.22070312 C-35.83583237 73.32225538 -27.56641763 72.99156042 -18.23046875 65.41015625 C-17.11161595 64.64065619 -15.98990666 63.8752621 -14.86328125 63.1171875 C-14.03570312 62.49199219 -13.208125 61.86679688 -12.35546875 61.22265625 C-9.5199709 59.10624719 -6.70363257 57.01629891 -3.73046875 55.09765625 C-0.69078761 53.05054241 -0.69078761 53.05054241 1.76953125 50.41015625 C2.19966599 47.84996012 2.19966599 47.84996012 2.09765625 44.96484375 C2.08992188 43.34835938 2.08992188 43.34835938 2.08203125 41.69921875 C2.06140625 40.57257813 2.04078125 39.4459375 2.01953125 38.28515625 C2.01179688 36.63 2.01179688 36.63 2.00390625 34.94140625 C2.27926023 21.82020845 2.27926023 21.82020845 -3.23046875 10.41015625 C-7.20500798 6.78122913 -10.41600751 6.96328515 -15.60546875 7.12890625 C-18.93950769 7.48612471 -20.73877674 8.14498169 -23.23046875 10.41015625 Z M16.02734375 8.93359375 C11.70476895 13.83526948 10.64209192 17.24606323 10.671875 23.828125 C10.67509766 25.08173828 10.67832031 26.33535156 10.68164062 27.62695312 C10.69001953 28.93728516 10.69839844 30.24761719 10.70703125 31.59765625 C10.71204808 32.93294106 10.71661066 34.26822766 10.72070312 35.60351562 C10.7325043 38.87244098 10.74896828 42.14127616 10.76953125 45.41015625 C11.38368896 45.06879639 11.99784668 44.72743652 12.63061523 44.37573242 C13.84213257 43.70247925 13.84213257 43.70247925 15.078125 43.015625 C15.87790771 42.57114014 16.67769043 42.12665527 17.50170898 41.66870117 C19.27678049 40.68361197 21.05399771 39.70238902 22.83203125 38.72265625 C23.47140625 38.28953125 24.11078125 37.85640625 24.76953125 37.41015625 C24.76953125 36.75015625 24.76953125 36.09015625 24.76953125 35.41015625 C25.42953125 35.41015625 26.08953125 35.41015625 26.76953125 35.41015625 C26.7953125 34.74628906 26.82109375 34.08242187 26.84765625 33.3984375 C27.11049403 29.30653123 27.42075671 26.10770533 29.26953125 22.41015625 C32.79478035 19.58995697 36.36790745 19.04030325 40.76953125 18.41015625 C40.76953125 17.09015625 40.76953125 15.77015625 40.76953125 14.41015625 C39.44953125 14.41015625 38.12953125 14.41015625 36.76953125 14.41015625 C36.43953125 13.42015625 36.10953125 12.43015625 35.76953125 11.41015625 C30.68093094 6.46694452 22.02838366 3.68604764 16.02734375 8.93359375 Z M41.76953125 15.41015625 C43.15441627 18.59472278 43.88503982 19.49501969 46.83203125 21.66015625 C49.38267327 23.69191766 50.29081405 25.11880362 50.83203125 28.34765625 C51.09497594 33.15319718 49.32994063 36.42418068 46.39453125 40.16015625 C44.20425794 41.84498187 42.45132895 42.67875688 39.76953125 43.41015625 C38.74601562 43.14976563 37.7225 42.889375 36.66796875 42.62109375 C31.07635929 42.31854174 28.1484992 44.70092724 23.64453125 47.78515625 C22.81356934 48.33228271 21.98260742 48.87940918 21.12646484 49.44311523 C18.65851453 51.07689929 16.2112335 52.73745806 13.76953125 54.41015625 C13.08826172 54.87470215 12.40699219 55.33924805 11.70507812 55.81787109 C8.93199375 57.71415035 6.17494083 59.62822361 3.43359375 61.5703125 C0.76953125 63.41015625 0.76953125 63.41015625 -2.08203125 65.03125 C-3.14550781 65.71380859 -3.14550781 65.71380859 -4.23046875 66.41015625 C-4.23046875 67.07015625 -4.23046875 67.73015625 -4.23046875 68.41015625 C-5.11347656 68.67054687 -5.99648437 68.9309375 -6.90625 69.19921875 C-10.18446141 70.39339682 -12.56227452 71.80647553 -15.41796875 73.78515625 C-26.25257573 80.7285626 -35.49814238 81.92961427 -48.14453125 82.234375 C-52.88823585 82.35328531 -57.52268025 82.82287635 -62.23046875 83.41015625 C-57.17166586 88.85580877 -49.9484817 89.18121127 -42.84057617 89.61889648 C-39.70519655 89.70822914 -36.57076902 89.77737867 -33.43432617 89.81518555 C-31.43287741 89.84741617 -29.43213882 89.91673706 -27.43164062 89.98632812 C-18.64890031 90.08727916 -13.18451672 88.81472979 -6.23046875 83.41015625 C-5.29074219 82.73210937 -4.35101563 82.0540625 -3.3828125 81.35546875 C-2.65191406 80.75476563 -1.92101562 80.1540625 -1.16796875 79.53515625 C-0.35070312 78.86355469 0.4665625 78.19195312 1.30859375 77.5 C8.01555686 72.01209902 8.01555686 72.01209902 14.0859375 65.8671875 C20.94444518 59.93163445 29.62405157 60.95455259 38.140625 60.8828125 C39.17574219 60.86089844 40.21085937 60.83898437 41.27734375 60.81640625 C42.2120752 60.80931641 43.14680664 60.80222656 44.10986328 60.79492188 C47.2868798 60.3353131 49.18453507 59.28572441 51.76953125 57.41015625 C52.78018796 55.3048608 52.78018796 55.3048608 53.20703125 52.97265625 C54.24521691 49.38566647 54.65437297 48.51251916 57.58203125 45.91015625 C63.05559482 43.33436163 63.05559482 43.33436163 66.76953125 43.41015625 C70.47865022 45.17529253 73.11760594 47.30471768 75.20703125 50.84765625 C76.11708763 54.99346866 76.26380028 58.08180823 74.76953125 62.09765625 C71.87469982 65.44480509 68.96808588 66.10240973 64.76953125 67.41015625 C64.76953125 68.07015625 64.76953125 68.73015625 64.76953125 69.41015625 C63.90328125 68.89453125 63.03703125 68.37890625 62.14453125 67.84765625 C58.17365313 66.15635631 56.9296463 66.63686428 52.76953125 67.41015625 C51.40637678 67.51324207 50.04140882 67.59397536 48.67578125 67.65625 C47.95519531 67.68912109 47.23460937 67.72199219 46.4921875 67.75585938 C45.01057259 67.81705085 43.52879152 67.87434371 42.046875 67.92773438 C37.62385584 68.13741239 33.94388786 68.77872257 29.76953125 70.41015625 C29.43953125 70.08015625 29.10953125 69.75015625 28.76953125 69.41015625 C24.52564151 69.57338278 22.30869746 69.97882328 18.95703125 72.66015625 C16.6850129 75.24246187 16.6850129 75.24246187 15.70703125 78.09765625 C14.5103664 81.04942955 13.60193454 81.08901805 10.76953125 82.41015625 C4.16686637 86.38815931 -2.15939378 90.66114918 -8.23046875 95.41015625 C-4.30455461 99.76842316 -4.30455461 99.76842316 0.76953125 102.41015625 C5.26515775 101.97872617 8.16267082 100.85268183 11.89453125 98.34765625 C12.83425781 97.72375 13.77398437 97.09984375 14.7421875 96.45703125 C15.74121094 95.7815625 16.74023438 95.10609375 17.76953125 94.41015625 C18.86136719 93.6934375 19.95320313 92.97671875 21.078125 92.23828125 C26.70610707 88.67937413 26.70610707 88.67937413 31.76953125 84.41015625 C32.17000569 82.08740448 32.50924165 79.75276268 32.76953125 77.41015625 C38.37989549 75.78938436 42.23198202 74.8543643 47.76953125 77.41015625 C48.54296875 86.26171875 48.54296875 86.26171875 45.70703125 90.47265625 C42.25984525 92.74633212 39.84202541 92.98147265 35.76953125 93.41015625 C32.43509181 94.8673951 32.43509181 94.8673951 29.76953125 96.41015625 C29.76953125 97.07015625 29.76953125 97.73015625 29.76953125 98.41015625 C29.09535156 98.48363281 28.42117187 98.55710937 27.7265625 98.6328125 C23.78415139 99.6691927 20.83845841 101.62239162 17.45703125 103.84765625 C16.48926758 104.45963867 16.48926758 104.45963867 15.50195312 105.08398438 C13.88434617 106.13328921 12.32131001 107.26574566 10.76953125 108.41015625 C10.76953125 109.07015625 10.76953125 109.73015625 10.76953125 110.41015625 C7.45882287 111.4112514 4.46868356 111.51371759 1.01953125 111.47265625 C0.0346875 111.46363281 -0.95015625 111.45460938 -1.96484375 111.4453125 C-2.7125 111.43371094 -3.46015625 111.42210937 -4.23046875 111.41015625 C-4.23046875 110.75015625 -4.23046875 110.09015625 -4.23046875 109.41015625 C-6.26051661 107.39366116 -6.26051661 107.39366116 -8.85546875 105.34765625 C-9.71398437 104.63480469 -10.5725 103.92195313 -11.45703125 103.1875 C-15.69145849 100.47388818 -19.86237085 100.26751547 -24.79296875 100.28515625 C-25.51613281 100.28257812 -26.23929688 100.28 -26.984375 100.27734375 C-29.25619805 100.35298307 -29.25619805 100.35298307 -31.53198242 100.91503906 C-36.32759611 101.79493634 -41.12546021 101.43834827 -45.98046875 101.28515625 C-47.0271875 101.27484375 -48.07390625 101.26453125 -49.15234375 101.25390625 C-56.42981283 101.0173885 -61.20079181 99.44749205 -67.23046875 95.41015625 C-67.89046875 95.08015625 -68.55046875 94.75015625 -69.23046875 94.41015625 C-67.7180236 98.94749169 -64.17030208 101.07113941 -60.23046875 103.41015625 C-53.3797912 106.32533819 -46.32589932 106.46178208 -38.984375 106.48046875 C-37.63866831 106.49041358 -36.29296509 106.50083945 -34.94726562 106.51171875 C-32.86885313 106.5283833 -30.79295396 106.53515607 -28.71459961 106.50976562 C-20.41518365 106.42338495 -14.30998361 106.73329725 -8.04882812 112.7265625 C-1.13802482 119.12517952 10.1647272 118.69637499 18.984375 118.640625 C22.83704459 118.32182064 26.00226309 117.17742441 28.76953125 114.41015625 C29.03785676 112.80895292 29.28433307 111.20405984 29.51953125 109.59765625 C30.21421411 106.02208269 30.56275047 104.64565658 33.01953125 101.84765625 C36.68190742 99.93323234 39.54255315 98.72457828 43.66015625 99.9921875 C44.35625 100.25386719 45.05234375 100.51554687 45.76953125 100.78515625 C54.2136234 103.86091326 64.02318924 104.68700232 72.57421875 101.625 C76.54916782 99.42533957 79.4455362 96.29058835 81.76953125 92.41015625 C82.47775657 89.75492896 82.47775657 89.75492896 82.76953125 87.41015625 C81.77953125 87.41015625 80.78953125 87.41015625 79.76953125 87.41015625 C78.42621471 89.40346467 77.09359113 91.40400491 75.76953125 93.41015625 C73.52196198 94.91170359 72.2652038 95.43284549 69.55078125 95.30859375 C66.10473812 94.51789207 63.22803612 93.67215903 60.14453125 91.91015625 C58.21471918 88.40140703 58.44633056 85.72854472 59.0625 81.82421875 C59.90854204 78.93552271 61.05985739 76.97414992 63.5625 75.2265625 C67.67564625 73.70506238 71.98625932 73.79374476 76.33203125 73.74609375 C81.20843124 73.26953648 84.47522894 71.53415562 88.14453125 68.34765625 C90.55713991 63.98640213 90.72992045 60.27709097 89.76953125 55.41015625 C87.30134315 50.14578162 83.79079008 45.44933923 78.76953125 42.41015625 C77.44953125 42.41015625 76.12953125 42.41015625 74.76953125 42.41015625 C71.07813391 38.82732942 70.01728861 35.31206018 68.76953125 30.41015625 C68.1448362 29.05665031 67.49789815 27.71081142 66.76953125 26.41015625 C66.10953125 26.41015625 65.44953125 26.41015625 64.76953125 26.41015625 C64.43953125 25.09015625 64.10953125 23.77015625 63.76953125 22.41015625 C63.10953125 22.41015625 62.44953125 22.41015625 61.76953125 22.41015625 C61.43953125 21.42015625 61.10953125 20.43015625 60.76953125 19.41015625 C54.62389887 15.76423545 48.77973604 14.95788497 41.76953125 15.41015625 Z M34.76953125 28.41015625 C35.34298062 31.27740311 35.63098275 32.27160775 37.76953125 34.41015625 C40.70406386 34.04333967 41.63390371 33.54578379 43.76953125 31.41015625 C43.45101355 29.30194828 43.45101355 29.30194828 42.76953125 27.41015625 C38.59143056 26.22084438 38.59143056 26.22084438 34.76953125 28.41015625 Z M61.76953125 52.41015625 C61.10953125 53.07015625 60.44953125 53.73015625 59.76953125 54.41015625 C60.08804895 56.51836422 60.08804895 56.51836422 60.76953125 58.41015625 C63.37535496 59.34080758 64.41151349 59.55933032 67.01953125 58.47265625 C67.59703125 58.12203125 68.17453125 57.77140625 68.76953125 57.41015625 C68.43953125 56.09015625 68.10953125 54.77015625 67.76953125 53.41015625 C64.86879944 52.73214591 64.86879944 52.73214591 61.76953125 52.41015625 Z M67.76953125 81.41015625 C66.66116702 83.29331784 66.66116702 83.29331784 65.76953125 85.41015625 C66.09953125 86.07015625 66.42953125 86.73015625 66.76953125 87.41015625 C68.41953125 87.41015625 70.06953125 87.41015625 71.76953125 87.41015625 C72.09953125 86.42015625 72.42953125 85.43015625 72.76953125 84.41015625 C71.39467593 82.86848983 71.39467593 82.86848983 69.76953125 81.41015625 C69.10953125 81.41015625 68.44953125 81.41015625 67.76953125 81.41015625 Z M37.76953125 107.41015625 C37.38734358 109.06630282 37.05558023 110.73472649 36.76953125 112.41015625 C37.8948723 113.76634124 37.8948723 113.76634124 40.83203125 113.47265625 C41.80140625 113.45203125 42.77078125 113.43140625 43.76953125 113.41015625 C44.09953125 111.76015625 44.42953125 110.11015625 44.76953125 108.41015625 C42.45953125 108.08015625 40.14953125 107.75015625 37.76953125 107.41015625 Z " fill="#094584" transform="translate(102.23046875,46.58984375)"/>
<path d="M0 0 C2.98812845 1.59830126 5.80442647 3.24461765 8.625 5.125 C10.4290742 5.42991395 12.24411906 5.67215272 14.0625 5.875 C23.16138765 7.29601272 31.73377802 11.11154103 38.06640625 17.9453125 C40.01821311 20.67490706 41.39710628 23.5510742 42.875 26.5625 C45.97671084 32.68890402 49.3644918 35.53171893 55.03515625 39.234375 C59.07476355 42.18334926 61.33239207 45.74253178 63.625 50.125 C63.96273437 50.72570312 64.30046875 51.32640625 64.6484375 51.9453125 C67.95546671 58.95378726 68.08951674 68.54673595 65.7578125 75.8359375 C64.62331127 78.12978305 63.45227714 80.29772286 61.625 82.125 C61.37752391 84.26879888 61.15246143 86.41519712 60.9375 88.5625 C59.64318787 97.91771191 56.00669863 105.06984497 48.453125 110.8828125 C41.94979987 115.30173855 36.2196714 116.75768 28.3828125 117.73046875 C25.67137407 117.97012978 25.67137407 117.97012978 23.625 119.125 C23.625 118.465 23.625 117.805 23.625 117.125 C20.11506981 118.25193853 20.11506981 118.25193853 17.4453125 120.63671875 C14.61137226 122.95373856 11.33800982 122.84372632 7.8125 123.125 C2.04411293 123.58583438 2.04411293 123.58583438 -3.30859375 125.6640625 C-7.48196154 127.65239314 -11.06197903 127.57659099 -15.625 127.5 C-16.46675781 127.49274902 -17.30851562 127.48549805 -18.17578125 127.47802734 C-25.63669156 127.31226137 -32.08184755 126.32043497 -38.375 122.125 C-38.375 121.465 -38.375 120.805 -38.375 120.125 C-28.805 120.455 -19.235 120.785 -9.375 121.125 C-9.375 120.135 -9.375 119.145 -9.375 118.125 C-8.385 117.465 -7.395 116.805 -6.375 116.125 C-5.79756643 113.86813944 -5.79756643 113.86813944 -5.5625 111.3125 C-4.9326746 107.71052334 -4.40179415 105.51473379 -1.625 103.0625 C1.83795407 100.99804661 3.60729269 100.125 7.625 100.125 C8.97147316 100.54315937 10.30415878 101.00682084 11.625 101.5 C20.13680966 104.60042308 29.889376 105.36448275 38.49609375 102.2734375 C42.13973534 100.30787671 44.53659947 97.67295183 46.625 94.125 C47.56740924 91.36735649 47.56740924 91.36735649 47.625 89.125 C45.40074901 90.00107182 45.40074901 90.00107182 44.3125 92.5 C42.28768298 95.64971536 41.15041918 96.8221277 37.625 98.125 C32.93639515 97.92893107 29.43793589 96.64527897 25.5 94.125 C23.10998508 90.30097612 23.07649669 87.95738686 23.81640625 83.5703125 C24.94860486 80.14636889 26.3071237 78.30923177 29.1953125 76.1640625 C33.39915673 74.36627703 37.70069249 74.44077119 42.22265625 74.42578125 C46.92884997 74.00973427 50.1590995 72.63447291 53.46484375 69.23046875 C55.62833418 65.30413427 55.41667938 61.45706958 54.625 57.125 C52.25778199 52.13009339 49.27232473 48.16789119 44.625 45.125 C41.97565178 44.41066879 41.97565178 44.41066879 39.625 44.125 C39.625 43.465 39.625 42.805 39.625 42.125 C38.985625 41.96 38.34625 41.795 37.6875 41.625 C35.625 40.125 35.625 40.125 35.20703125 38.24609375 C35.13871094 37.52550781 35.07039063 36.80492187 35 36.0625 C34.87625 34.763125 34.7525 33.46375 34.625 32.125 C33.965 31.795 33.305 31.465 32.625 31.125 C32.625 30.465 32.625 29.805 32.625 29.125 C31.965 28.795 31.305 28.465 30.625 28.125 C30.13 26.64 30.13 26.64 29.625 25.125 C24.69208715 20.34156936 18.97022984 17.94961545 12.125 17.9375 C10.3925 18.0303125 10.3925 18.0303125 8.625 18.125 C9.388125 18.888125 10.15125 19.65125 10.9375 20.4375 C11.824375 21.324375 12.71125 22.21125 13.625 23.125 C14.2025 23.558125 14.78 23.99125 15.375 24.4375 C17.52427561 27.33902207 17.72483953 30.62396033 17.625 34.125 C15.8676136 39.39715921 12.99002143 41.94217187 8.625 45.125 C5.625 46.125 5.625 46.125 2.36328125 45.421875 C-2.35406616 45.04724762 -4.57242747 46.67442433 -8.1875 49.375 C-13.07083118 52.78815057 -17.15853538 54.91622103 -22.99609375 56.3203125 C-26.83687068 57.61949156 -29.83660961 59.98366774 -33.05078125 62.40625 C-35.375 64.125 -35.375 64.125 -38.10546875 65.65625 C-40.67499384 66.98391597 -40.67499384 66.98391597 -41.375 70.125 C-43.37071323 70.80439174 -45.37094773 71.47061559 -47.375 72.125 C-48.035 73.115 -48.695 74.105 -49.375 75.125 C-52 76.125 -52 76.125 -55.375 77.125 C-56.79490365 77.65812367 -58.21153473 78.20003351 -59.625 78.75 C-63.375 80.125 -63.375 80.125 -65.375 80.125 C-65.05087628 77.09984531 -64.47671348 76.21258661 -62.125 74.1875 C-61.2175 73.506875 -60.31 72.82625 -59.375 72.125 C-58.653125 71.361875 -57.93125 70.59875 -57.1875 69.8125 C-47.0494186 60.125 -47.0494186 60.125 -42.375 60.125 C-42.045 59.135 -41.715 58.145 -41.375 57.125 C-40.715 57.125 -40.055 57.125 -39.375 57.125 C-36.57031534 55.53343872 -35.17687616 54.69716973 -33.375 52.125 C-32.57979395 48.15282622 -32.76326567 44.28300363 -32.9375 40.25 C-32.96851807 39.13262451 -32.99953613 38.01524902 -33.03149414 36.86401367 C-33.09835624 34.63629743 -33.17776605 32.40891788 -33.27050781 30.18212891 C-33.36002852 27.5630208 -33.36312759 24.97438704 -33.3046875 22.35546875 C-33.1710668 15.62721812 -33.1710668 15.62721812 -36.234375 9.92578125 C-40.27721926 7.01574738 -44.34975682 5.38270478 -49.375 5.125 C-49.045 3.475 -48.715 1.825 -48.375 0.125 C-42.625 0 -42.625 0 -40.375 1.125 C-38.951875 1.063125 -38.951875 1.063125 -37.5 1 C-33.91740244 1.1433039 -33.11814296 2.02192373 -30.375 4.125 C-27.19085929 3.69110242 -24.96285708 2.3816914 -22.3125 0.625 C-14.64351701 -4.43858954 -8.01467781 -3.99276677 0 0 Z M-18.1171875 10.6484375 C-22.4397623 15.55011323 -23.50243933 18.96090698 -23.47265625 25.54296875 C-23.46943359 26.79658203 -23.46621094 28.05019531 -23.46289062 29.34179688 C-23.45451172 30.65212891 -23.44613281 31.96246094 -23.4375 33.3125 C-23.43248317 34.64778481 -23.42792059 35.98307141 -23.42382812 37.31835938 C-23.41202695 40.58728473 -23.39556297 43.85611991 -23.375 47.125 C-22.76084229 46.78364014 -22.14668457 46.44228027 -21.51391602 46.09057617 C-20.30239868 45.417323 -20.30239868 45.417323 -19.06640625 44.73046875 C-18.26662354 44.28598389 -17.46684082 43.84149902 -16.64282227 43.38354492 C-14.86775076 42.39845572 -13.09053354 41.41723277 -11.3125 40.4375 C-10.673125 40.004375 -10.03375 39.57125 -9.375 39.125 C-9.375 38.465 -9.375 37.805 -9.375 37.125 C-8.715 37.125 -8.055 37.125 -7.375 37.125 C-7.34921875 36.46113281 -7.3234375 35.79726562 -7.296875 35.11328125 C-7.03403722 31.02137498 -6.72377454 27.82254908 -4.875 24.125 C-1.3497509 21.30480072 2.2233762 20.755147 6.625 20.125 C6.625 18.805 6.625 17.485 6.625 16.125 C5.305 16.125 3.985 16.125 2.625 16.125 C2.295 15.135 1.965 14.145 1.625 13.125 C-3.46360031 8.18178827 -12.11614759 5.40089139 -18.1171875 10.6484375 Z M0.625 30.125 C1.19844937 32.99224686 1.4864515 33.9864515 3.625 36.125 C6.55953261 35.75818342 7.48937246 35.26062754 9.625 33.125 C9.3064823 31.01679203 9.3064823 31.01679203 8.625 29.125 C4.44689931 27.93568813 4.44689931 27.93568813 0.625 30.125 Z M33.625 83.125 C32.51663577 85.00816159 32.51663577 85.00816159 31.625 87.125 C31.955 87.785 32.285 88.445 32.625 89.125 C34.275 89.125 35.925 89.125 37.625 89.125 C37.955 88.135 38.285 87.145 38.625 86.125 C37.25014468 84.58333358 37.25014468 84.58333358 35.625 83.125 C34.965 83.125 34.305 83.125 33.625 83.125 Z M3.625 109.125 C3.24281233 110.78114657 2.91104898 112.44957024 2.625 114.125 C3.75034105 115.48118499 3.75034105 115.48118499 6.6875 115.1875 C7.656875 115.166875 8.62625 115.14625 9.625 115.125 C9.955 113.475 10.285 111.825 10.625 110.125 C8.315 109.795 6.005 109.465 3.625 109.125 Z " fill="#0B6BB0" transform="translate(136.375,44.875)"/>
<path d="M0 0 C1.69719127 0.94726954 3.36935236 1.94228261 5 3 C9.41288598 3.3804212 11.27420911 3.48386059 15 1 C15.495 1.495 15.495 1.495 16 2 C17.8871875 1.87625 17.8871875 1.87625 19.8125 1.75 C23.2268054 1.71322113 23.7546455 1.79144868 26.5 4.125 C28.26739304 7.51250333 28.6277457 9.2335258 28 13 C26.15063318 16.08227803 24.9021914 17.6298702 21.5625 19 C18.24980816 19 16.74786901 17.78611486 14 16 C11.61303536 15.02778912 11.61303536 15.02778912 9 15 C6.8607523 16.68333346 6.8607523 16.68333346 4.9375 19 C2.17151195 21.64996506 0.70819055 22.88878917 -3.109375 23.48828125 C-8.00124908 23.21982475 -11.00006 22.90692232 -14.6875 19.5625 C-17.21794592 14.62210558 -17.44018124 11.44169746 -16 6 C-12.42983588 -0.51885522 -6.9116549 -1.22175718 0 0 Z M-7 9 C-7 9.99 -7 10.98 -7 12 C-5.35 12.33 -3.7 12.66 -2 13 C-1.67 12.34 -1.34 11.68 -1 11 C-1.66 10.34 -2.32 9.68 -3 9 C-4.32 9 -5.64 9 -7 9 Z " fill="#094789" transform="translate(49,92)"/>
<path d="M0 0 C3 2 3 2 4 5 C4.5024763 9.43854063 4.30188061 11.49057646 2 15.375 C-1.3409029 18.29829004 -2.75616267 18.63824268 -6.99609375 18.85546875 C-9.84349781 19.06083707 -12.34250999 20.00344124 -15 21 C-15 21.66 -15 22.32 -15 23 C-16.0725 23.53625 -17.145 24.0725 -18.25 24.625 C-18.97316406 24.98722656 -19.69632813 25.34945312 -20.44140625 25.72265625 C-22.30135612 26.65121138 -24.16365304 27.57506982 -26.02734375 28.49609375 C-27.59162109 29.27146484 -27.59162109 29.27146484 -29.1875 30.0625 C-30.17105469 30.54847656 -31.15460938 31.03445312 -32.16796875 31.53515625 C-35.01742286 32.9503591 -35.01742286 32.9503591 -37.625 34.703125 C-40.98560473 36.53819206 -43.35461628 35.78625923 -47 35 C-47 34.01 -47 33.02 -47 32 C-47.928125 31.566875 -47.928125 31.566875 -48.875 31.125 C-51 30 -51 30 -53 28 C-53 27.01 -53 26.02 -53 25 C-52.01 25 -51.02 25 -50 25 C-50 25.66 -50 26.32 -50 27 C-46.7 27.66 -43.4 28.32 -40 29 C-40 28.01 -40 27.02 -40 26 C-38.33984375 24.74609375 -38.33984375 24.74609375 -35.9375 23.4375 C-31.26289999 20.73855472 -26.62563889 18.00811682 -22.0625 15.125 C-21.4120874 14.73884521 -20.7616748 14.35269043 -20.09155273 13.95483398 C-15.7368276 11.16564818 -14.03883964 8.77906163 -12.68261719 3.77124023 C-12 2 -12 2 -9.1875 -0.0625 C-5.58527466 -1.12197804 -3.58629601 -1.03604107 0 0 Z " fill="#0B599C" transform="translate(147,122)"/>
<path d="M0 0 C0.495 1.485 0.495 1.485 1 3 C1.78375 3.309375 2.5675 3.61875 3.375 3.9375 C6.55484365 5.22457957 7.43577821 5.94976751 9 9 C9.84681825 12.0554118 10.28852484 14.83188415 10 18 C7.56336807 21.27204859 4.92387426 23.76678237 1 25 C-2.49046831 25.27461241 -5.80688299 25.34089057 -9.1875 24.375 C-11.11304157 23.79547442 -11.11304157 23.79547442 -13.22729492 24.96435547 C-16.40098085 26.14977202 -18.79575892 26.22861321 -22.17578125 26.1953125 C-23.33271484 26.18886719 -24.48964844 26.18242188 -25.68164062 26.17578125 C-26.87982422 26.15902344 -28.07800781 26.14226562 -29.3125 26.125 C-30.53001953 26.11597656 -31.74753906 26.10695313 -33.00195312 26.09765625 C-36.00150274 26.07413037 -39.00065044 26.04125653 -42 26 C-42 25.67 -42 25.34 -42 25 C-41.40574219 24.98018066 -40.81148437 24.96036133 -40.19921875 24.93994141 C-37.46575581 24.84376007 -34.73296197 24.73446443 -32 24.625 C-30.59814453 24.57859375 -30.59814453 24.57859375 -29.16796875 24.53125 C-27.78544922 24.47324219 -27.78544922 24.47324219 -26.375 24.4140625 C-25.53710938 24.3826416 -24.69921875 24.3512207 -23.8359375 24.31884766 C-20.16530699 23.90615452 -16.58347107 22.89586777 -13 22 C-23.56 22 -34.12 22 -45 22 C-42.40339804 19.40339804 -41.27276191 19.73703728 -37.66015625 19.69140625 C-36.0659082 19.65370117 -36.0659082 19.65370117 -34.43945312 19.61523438 C-32.19211404 19.58014001 -29.94471179 19.54887635 -27.69726562 19.52148438 C-26.63314453 19.49505859 -25.56902344 19.46863281 -24.47265625 19.44140625 C-23.49562744 19.42795166 -22.51859863 19.41449707 -21.51196289 19.40063477 C-18.61416534 18.93846295 -17.73968042 18.31464463 -16 16 C-15.18450007 13.86837182 -15.18450007 13.86837182 -14.625 11.5625 C-13.32803024 7.34220158 -11.84815417 5.36809488 -8 3 C-5.29120665 1.64560332 -2.99066732 1.93498549 0 2 C0 1.34 0 0.68 0 0 Z M-5 11 C-5.66 11.66 -6.32 12.32 -7 13 C-6.6814823 15.10820797 -6.6814823 15.10820797 -6 17 C-3.39417629 17.93065133 -2.35801776 18.14917407 0.25 17.0625 C0.8275 16.711875 1.405 16.36125 2 16 C1.67 14.68 1.34 13.36 1 12 C-1.90073181 11.32198966 -1.90073181 11.32198966 -5 11 Z " fill="#0C73B9" transform="translate(169,88)"/>
<path d="M0 0 C1.69719127 0.94726954 3.36935236 1.94228261 5 3 C9.41288598 3.3804212 11.27420911 3.48386059 15 1 C15.495 1.495 15.495 1.495 16 2 C17.8871875 1.87625 17.8871875 1.87625 19.8125 1.75 C23.2268054 1.71322113 23.7546455 1.79144868 26.5 4.125 C28.26739304 7.51250333 28.6277457 9.2335258 28 13 C26.15063318 16.08227803 24.9021914 17.6298702 21.5625 19 C18.24980816 19 16.74786901 17.78611486 14 16 C11.61303536 15.02778912 11.61303536 15.02778912 9 15 C6.8607523 16.68333346 6.8607523 16.68333346 4.9375 19 C2.17151195 21.64996506 0.70819055 22.88878917 -3.109375 23.48828125 C-8.00124908 23.21982475 -11.00006 22.90692232 -14.6875 19.5625 C-17.21794592 14.62210558 -17.44018124 11.44169746 -16 6 C-12.42983588 -0.51885522 -6.9116549 -1.22175718 0 0 Z M-12 4 C-13.36078035 6.52372901 -13.36078035 6.52372901 -14 9 C-13.34 9 -12.68 9 -12 9 C-11.67 10.32 -11.34 11.64 -11 13 C-11 11.68 -11 10.36 -11 9 C-4.9453125 8.0234375 -4.9453125 8.0234375 -3 8 C-1 10 -1 10 -0.875 13.125 C-0.91625 14.07375 -0.9575 15.0225 -1 16 C-1.99 16.33 -2.98 16.66 -4 17 C-4.33 17.99 -4.66 18.98 -5 20 C-1.20081162 19.48659616 0.43134786 18.7920132 3 16 C6.55902695 13.584946 9.78189017 13.61653547 14 14 C14.495 14.515625 14.99 15.03125 15.5 15.5625 C15.995 16.036875 16.49 16.51125 17 17 C22.04565002 16.80862516 22.04565002 16.80862516 26 14 C26.37453719 9.78645663 25.79477439 6.81389558 24 3 C18.32947421 3.55639815 12.66517593 4.13794016 7.0078125 4.81640625 C5.01259732 4.9988481 3.00353903 5 1 5 C1 4.34 1 3.68 1 3 C-5.75387568 1.69197424 -5.75387568 1.69197424 -12 4 Z M-7 9 C-7 9.99 -7 10.98 -7 12 C-5.35 12.33 -3.7 12.66 -2 13 C-1.67 12.34 -1.34 11.68 -1 11 C-1.66 10.34 -2.32 9.68 -3 9 C-4.32 9 -5.64 9 -7 9 Z " fill="#084384" transform="translate(49,92)"/>
<path d="M0 0 C1.33998047 0.31324219 1.33998047 0.31324219 2.70703125 0.6328125 C3.60808594 0.83648437 4.50914062 1.04015625 5.4375 1.25 C6.12457031 1.41757813 6.81164062 1.58515625 7.51953125 1.7578125 C7.8698847 5.15753858 8.00925052 8.36703884 7.51953125 11.7578125 C3.07971462 16.54814097 -2.34300236 16.36975306 -8.48046875 16.7578125 C-10.15325874 17.0589147 -11.82525697 17.37159642 -13.48046875 17.7578125 C-13.81046875 16.7678125 -14.14046875 15.7778125 -14.48046875 14.7578125 C-8.73046875 10.7578125 -8.73046875 10.7578125 -6.48046875 10.7578125 C-6.48046875 9.1078125 -6.48046875 7.4578125 -6.48046875 5.7578125 C-5.82046875 5.7578125 -5.16046875 5.7578125 -4.48046875 5.7578125 C-4.81046875 4.4378125 -5.14046875 3.1178125 -5.48046875 1.7578125 C-2.48046875 -0.2421875 -2.48046875 -0.2421875 0 0 Z " fill="#0D70BA" transform="translate(141.48046875,123.2421875)"/>
<path d="M0 0 C0.66 0 1.32 0 2 0 C2.721875 0.763125 3.44375 1.52625 4.1875 2.3125 C11.0192837 8.84064887 19.47260819 9.11783426 28.4609375 9.31640625 C29.25150543 9.33718735 30.04207336 9.35796844 30.8565979 9.37937927 C33.36265017 9.44435582 35.86880024 9.50351643 38.375 9.5625 C40.08204105 9.60573468 41.78907249 9.64935049 43.49609375 9.69335938 C47.66396426 9.7999834 51.83193239 9.90139441 56 10 C56 10.66 56 11.32 56 12 C56.66 12.33 57.32 12.66 58 13 C56.46279297 12.98259766 56.46279297 12.98259766 54.89453125 12.96484375 C53.533856 12.95545978 52.17317876 12.94636023 50.8125 12.9375 C50.13896484 12.92912109 49.46542969 12.92074219 48.77148438 12.91210938 C45.9867485 12.8985253 43.36498789 12.92066792 40.63671875 13.51367188 C37.67568637 14.05981785 35.04941106 14.01766513 32.04296875 13.87890625 C30.37524414 13.80639648 30.37524414 13.80639648 28.67382812 13.73242188 C27.52333984 13.67634766 26.37285156 13.62027344 25.1875 13.5625 C24.01767578 13.51029297 22.84785156 13.45808594 21.64257812 13.40429688 C18.76142726 13.27493908 15.88065085 13.13998535 13 13 C13 12.34 13 11.68 13 11 C12.2575 10.87625 11.515 10.7525 10.75 10.625 C8.19858515 10.04513299 6.2732427 9.26291261 4 8 C4.99 9.32 5.98 10.64 7 12 C4.83125748 11.49396008 3.00032373 11.00016187 1 10 C-0.96281457 6.28098293 -1.15081169 4.02784093 0 0 Z " fill="#093369" transform="translate(30,135)"/>
<path d="M0 0 C0.33 0.99 0.66 1.98 1 3 C2.175625 3.4640625 2.175625 3.4640625 3.375 3.9375 C6.37468342 5.15165758 7.36792702 6.2512455 9 9 C9 9.66 9 10.32 9 11 C8.34 11 7.68 11 7 11 C7 10.34 7 9.68 7 9 C6.34 9 5.68 9 5 9 C5.226875 9.598125 5.45375 10.19625 5.6875 10.8125 C5.790625 11.534375 5.89375 12.25625 6 13 C4.5625 14.75 4.5625 14.75 3 16 C3 15.01 3 14.02 3 13 C0.36 12.34 -2.28 11.68 -5 11 C-5.33 11.99 -5.66 12.98 -6 14 C-6.66 14.66 -7.32 15.32 -8 16 C-8.33 14.35 -8.66 12.7 -9 11 C-10.98 12.32 -12.96 13.64 -15 15 C-14.76001446 8.88036865 -14.76001446 8.88036865 -12.66796875 6.45703125 C-8.18466352 2.73730599 -5.7296936 1.87544144 0 2 C0 1.34 0 0.68 0 0 Z " fill="#095E96" transform="translate(169,88)"/>
<path d="M0 0 C-2.55686009 1.79982103 -5.12142337 3.5883496 -7.6875 5.375 C-8.40873047 5.88289063 -9.12996094 6.39078125 -9.87304688 6.9140625 C-13.47321249 9.41280759 -16.79455914 11.62307065 -21 13 C-21 13.66 -21 14.32 -21 15 C-32.93896145 23.14393075 -44.95289565 29.14633407 -59.4375 29.5625 C-65.36597861 29.7585862 -71.14362785 30.02528056 -77 31 C-74.69 31.99 -72.38 32.98 -70 34 C-70 34.33 -70 34.66 -70 35 C-76.625 34.25 -76.625 34.25 -80 32 C-79.67 30.68 -79.34 29.36 -79 28 C-78.11852295 27.96036133 -77.2370459 27.92072266 -76.32885742 27.87988281 C-73.00481668 27.72208296 -69.68230671 27.54867951 -66.35961914 27.36523438 C-64.93154429 27.28947273 -63.50314051 27.21963674 -62.07446289 27.15625 C-51.12677961 26.66473704 -41.32258762 25.23790069 -32 19 C-31.34 18.01 -30.68 17.02 -30 16 C-26.875 15.3125 -26.875 15.3125 -24 15 C-23.94457031 14.41347656 -23.88914063 13.82695313 -23.83203125 13.22265625 C-22.62079239 9.9869994 -20.62124066 9.1744299 -17.6875 7.4375 C-13.66855268 5.04180457 -13.66855268 5.04180457 -9.83984375 2.36328125 C-6.87589788 0.16706658 -3.46739896 -1.73369948 0 0 Z " fill="#020E1A" transform="translate(119,100)"/>
<path d="M0 0 C2 2 2 2 2 5 C2.66 5 3.32 5 4 5 C4.33 6.32 4.66 7.64 5 9 C5.66 9 6.32 9 7 9 C6.67 6.03 6.34 3.06 6 0 C6.66 0.33 7.32 0.66 8 1 C8.96586035 5.38352003 9.36087605 7.91737186 7.9375 12.1875 C5.04711208 16.3832244 1.93375147 19.35541618 -3 21 C-4.051875 20.7525 -5.10375 20.505 -6.1875 20.25 C-10.90818997 19.94044656 -12.61080852 21.24295482 -16.30078125 23.96875 C-17.14189453 24.47921875 -17.14189453 24.47921875 -18 25 C-18.66 24.67 -19.32 24.34 -20 24 C-10.48627741 16.49621881 -10.48627741 16.49621881 -5.875 16.5625 C-4.451875 16.7790625 -4.451875 16.7790625 -3 17 C-2.690625 16.030625 -2.38125 15.06125 -2.0625 14.0625 C-1 11 -1 11 0 10 C0.04063832 8.33382885 0.042721 6.66611905 0 5 C-2.475 4.505 -2.475 4.505 -5 4 C-6.32 5.65 -7.64 7.3 -9 9 C-8.67 6.36 -8.34 3.72 -8 1 C-5.03104944 0.01034981 -3.0913386 -0.23779528 0 0 Z " fill="#0A66A2" transform="translate(145,70)"/>
<path d="M0 0 C0.66 0.66 1.32 1.32 2 2 C-11.29360683 7.91465012 -25.27598005 8.43318202 -39.60498047 7.75097656 C-45.80445585 7.57559904 -50.68381126 8.70422036 -56 12 C-57.98251909 13.89440067 -59.40986099 15.7430285 -61 18 C-62.125 14.25 -62.125 14.25 -61 12 C-60.01 12 -59.02 12 -58 12 C-58 11.01 -58 10.02 -58 9 C-56.68 8.67 -55.36 8.34 -54 8 C-54 7.34 -54 6.68 -54 6 C-48.8995566 4.30855391 -44.4667694 3.76729621 -39.08203125 3.9453125 C-37.56446253 3.97062239 -36.04688389 3.99534301 -34.52929688 4.01953125 C-32.17732452 4.06885113 -29.82589474 4.12461677 -27.47436523 4.19189453 C-17.53479102 4.45756346 -9.30836669 4.0544321 0 0 Z " fill="#061C37" transform="translate(87,81)"/>
<path d="M0 0 C9.76812816 3.15899227 19.69162242 3.37701886 29.5625 0.625 C26.50672314 3.97180322 24.39928619 4.57986216 19.796875 4.828125 C18.30215257 4.8493644 16.80733838 4.86477888 15.3125 4.875 C14.57386719 4.895625 13.83523437 4.91625 13.07421875 4.9375 C7.77149679 4.97490897 4.34824769 3.86302365 -0.4375 1.625 C-4.23002787 1.37302757 -4.23002787 1.37302757 -7.4375 1.625 C-7.7675 3.275 -8.0975 4.925 -8.4375 6.625 C-7.509375 6.41875 -6.58125 6.2125 -5.625 6 C-2.4375 5.625 -2.4375 5.625 0.5625 7.625 C0.75 10.25 0.75 10.25 0.5625 12.625 C-0.0975 11.635 -0.7575 10.645 -1.4375 9.625 C-4.50306598 8.89156572 -4.50306598 8.89156572 -7.4375 8.625 C-7.7675 9.945 -8.0975 11.265 -8.4375 12.625 C-9.05625 12.74875 -9.675 12.8725 -10.3125 13 C-12.62870832 13.49697356 -12.62870832 13.49697356 -14.4375 15.625 C-15.0975 16.285 -15.7575 16.945 -16.4375 17.625 C-18.5625 17.25 -18.5625 17.25 -20.4375 16.625 C-19.4475 15.965 -18.4575 15.305 -17.4375 14.625 C-16.86006643 12.36813944 -16.86006643 12.36813944 -16.625 9.8125 C-15.99364589 6.17169129 -15.4517478 4.01427106 -12.625 1.5625 C-8.02768269 -1.23194778 -5.03993279 -1.90416871 0 0 Z " fill="#094B7E" transform="translate(147.4375,146.375)"/>
<path d="M0 0 C3 0 3 0 4.4296875 1.42578125 C5.14511719 2.35970703 5.14511719 2.35970703 5.875 3.3125 C9.82297775 8.45781526 14.43680847 10.32207341 20.5625 12.125 C21.67753906 12.45757812 22.79257812 12.79015625 23.94140625 13.1328125 C27.88901915 14.25205907 31.43776422 15.12205642 35.546875 15.31640625 C36.39121094 15.35830078 37.23554687 15.40019531 38.10546875 15.44335938 C39.41451172 15.50233398 39.41451172 15.50233398 40.75 15.5625 C41.63816406 15.60568359 42.52632812 15.64886719 43.44140625 15.69335938 C45.62745963 15.79913615 47.81362089 15.90122546 50 16 C49.67 17.32 49.34 18.64 49 20 C46.97924434 20.02734857 44.95837779 20.0465517 42.9375 20.0625 C41.81214844 20.07410156 40.68679687 20.08570313 39.52734375 20.09765625 C26.78090096 19.7447647 13.18677458 16.18677458 4 7 C0 2.6097561 0 2.6097561 0 0 Z " fill="#093063" transform="translate(22,145)"/>
<path d="M0 0 C0.33 0 0.66 0 1 0 C0.855625 0.928125 0.71125 1.85625 0.5625 2.8125 C0.10252888 6.12023347 -0.31725172 9.43098859 -0.6875 12.75 C-0.79449219 13.67296875 -0.90148437 14.5959375 -1.01171875 15.546875 C-1.22392345 18.26072724 -1.22392345 18.26072724 1 21 C1.33 21.66 1.66 22.32 2 23 C1.34 23 0.68 23 0 23 C1.52555966 27.81122847 1.52555966 27.81122847 5 31 C6.69156626 35.22265058 7.48360068 39.38520476 8.125 43.875 C8.29257812 45.02742188 8.46015625 46.17984375 8.6328125 47.3671875 C8.75398438 48.23601562 8.87515625 49.10484375 9 50 C8.01 50.495 8.01 50.495 7 51 C6.35284867 48.9170757 5.70732834 46.83364461 5.0625 44.75 C4.70285156 43.58984375 4.34320313 42.4296875 3.97265625 41.234375 C3.4255298 39.41501475 2.90702478 37.58447229 2.4921875 35.73046875 C1.71857172 33.01053389 -0.24254805 31.18350091 -2 29 C-4.50778477 23.45647577 -5.0427883 19.75953769 -4.25 13.6875 C-4.09015625 12.39199219 -3.9303125 11.09648438 -3.765625 9.76171875 C-3.01000397 6.04915213 -1.85344441 3.28426276 0 0 Z " fill="#092446" transform="translate(14,94)"/>
<path d="M0 0 C1.69719127 0.94726954 3.36935236 1.94228261 5 3 C9.41288598 3.3804212 11.27420911 3.48386059 15 1 C15.495 1.495 15.495 1.495 16 2 C18.67058851 2.14115161 21.32432238 2.04247107 24 2 C24 2.33 24 2.66 24 3 C15.98683242 5.01754006 9.18484103 6.55229744 1 5 C1 4.34 1 3.68 1 3 C-5.61829816 2.68574153 -5.61829816 2.68574153 -12 4 C-13.93561046 7.31818936 -14.37950398 10.20496016 -14 14 C-13.29042763 16.73398135 -13.29042763 16.73398135 -12 19 C-7.19651495 20.60116168 -1.8351138 20.6117046 3 19 C1.6875 21.0625 1.6875 21.0625 -1 23 C-4.81900337 23.32452836 -8.29869109 22.99001576 -12 22 C-14.73224009 19.46291992 -16.91353582 16.87965617 -17.08984375 13.046875 C-16.81244857 8.86460927 -16.32075549 5.70221483 -13.5625 2.4375 C-9.54574267 -1.05533246 -5.04584172 -0.89194172 0 0 Z " fill="#07213F" transform="translate(49,92)"/>
<path d="M0 0 C0.66 0 1.32 0 2 0 C2 0.66 2 1.32 2 2 C2.99 2.33 3.98 2.66 5 3 C5.3125 5.6875 5.3125 5.6875 5 9 C2.44149295 12.12706417 -0.1030276 14.77523725 -4 16 C-6.69085704 16.15035617 -9.30014607 16.08999513 -12 16 C-12 15.67 -12 15.34 -12 15 C-10.35 15 -8.7 15 -7 15 C-7 13.35 -7 11.7 -7 10 C-8.65 9.67 -10.3 9.34 -12 9 C-11.67 8.34 -11.34 7.68 -11 7 C-10.13375 7.2784375 -10.13375 7.2784375 -9.25 7.5625 C-6.73980653 8.05059317 -5.35752163 7.97552619 -3 7 C-2.67 6.01 -2.34 5.02 -2 4 C-1.34 4 -0.68 4 0 4 C0 2.68 0 1.36 0 0 Z " fill="#0A6BA9" transform="translate(174,97)"/>
<path d="M0 0 C1.11375 0.3403125 1.11375 0.3403125 2.25 0.6875 C-0.75 2.6875 -0.75 2.6875 -3.75 2.6875 C-6.03748693 4.33990058 -8.20259359 6.02004834 -10.375 7.8125 C-15.65700756 12.07662783 -20.99140708 16.07695365 -26.75 19.6875 C-27.41 19.3575 -28.07 19.0275 -28.75 18.6875 C-28.63557539 17.08254433 -28.50805306 15.47851881 -28.375 13.875 C-28.30539063 12.98167969 -28.23578125 12.08835938 -28.1640625 11.16796875 C-27.75 8.6875 -27.75 8.6875 -25.75 5.6875 C-24.92361624 8.57984315 -24.75 10.57492431 -24.75 13.6875 C-22.30519921 13.49921228 -22.30519921 13.49921228 -19.75 12.6875 C-19.47671875 12.07519531 -19.2034375 11.46289062 -18.921875 10.83203125 C-17.30479592 7.87277653 -15.36037311 7.12569024 -12.375 5.625 C-9.58510729 4.20749387 -7.03814609 2.91264641 -4.5703125 0.984375 C-2.75 -0.3125 -2.75 -0.3125 0 0 Z " fill="#05182E" transform="translate(94.75,167.3125)"/>
<path d="M0 0 C1.2684375 -0.00773437 1.2684375 -0.00773437 2.5625 -0.015625 C5.19511294 0.27126231 6.80284621 0.77869166 9 2.25 C10.1577506 5.72325181 10.06866652 8.61067448 10 12.25 C9.34 12.25 8.68 12.25 8 12.25 C7.67 10.93 7.34 9.61 7 8.25 C6.34 8.25 5.68 8.25 5 8.25 C4.34 6.93 3.68 5.61 3 4.25 C0.36 4.25 -2.28 4.25 -5 4.25 C-5 4.91 -5 5.57 -5 6.25 C-5.66 6.25 -6.32 6.25 -7 6.25 C-7 7.24 -7 8.23 -7 9.25 C-7.66 9.25 -8.32 9.25 -9 9.25 C-9 6.94 -9 4.63 -9 2.25 C-5.88610696 0.43356239 -3.59222291 -0.0219038 0 0 Z " fill="#0C80CA" transform="translate(142,66.75)"/>
<path d="M0 0 C-3.98393611 1.84566532 -7.44376683 2.36022829 -11.8125 2.625 C-13.55466797 2.73714844 -13.55466797 2.73714844 -15.33203125 2.8515625 C-16.21246094 2.90054688 -17.09289062 2.94953125 -18 3 C-18 3.66 -18 4.32 -18 5 C-27.38032903 8.06296458 -42.89216906 9.55391547 -52 5 C-52 4.34 -52 3.68 -52 3 C-52.66 3 -53.32 3 -54 3 C-54 2.34 -54 1.68 -54 1 C-53.26523438 1.32484375 -53.26523438 1.32484375 -52.515625 1.65625 C-46.35280746 3.95136826 -40.44545759 4.3606249 -33.9375 4.4375 C-32.68018066 4.47037109 -32.68018066 4.47037109 -31.39746094 4.50390625 C-25.86813935 4.48659331 -21.99798668 3.36447317 -17.0559082 0.9284668 C-14.25705898 -0.33551891 -11.67523811 -0.6403737 -8.625 -0.8125 C-7.12839844 -0.91498047 -7.12839844 -0.91498047 -5.6015625 -1.01953125 C-3 -1 -3 -1 0 0 Z " fill="#020E19" transform="translate(151,168)"/>
<path d="M0 0 C0.99 0.495 0.99 0.495 2 1 C3.41882881 1.11747478 4.84271414 1.17685428 6.26611328 1.20532227 C7.14687531 1.22526749 8.02763733 1.24521271 8.93508911 1.26576233 C10.36327469 1.29083107 10.36327469 1.29083107 11.8203125 1.31640625 C12.79410858 1.33718735 13.76790466 1.35796844 14.77120972 1.37937927 C17.88906647 1.44488598 21.00700903 1.50376497 24.125 1.5625 C26.23568604 1.60568415 28.34636333 1.6492984 30.45703125 1.69335938 C35.6379295 1.80056847 40.81891356 1.90233278 46 2 C45.67 2.66 45.34 3.32 45 4 C30.48 4 15.96 4 1 4 C0.67 2.68 0.34 1.36 0 0 Z " fill="#04152A" transform="translate(24,117)"/>
<path d="M0 0 C4.99970966 -0.00535096 9.99710262 0.02849592 14.99633789 0.09765625 C16.69450018 0.11575102 18.39280893 0.12339662 20.09106445 0.12011719 C22.54231628 0.11724098 24.9905718 0.15274532 27.44140625 0.1953125 C28.56839684 0.1816716 28.56839684 0.1816716 29.71815491 0.16775513 C35.78112149 0.33247947 38.86609886 2.68517371 43 7 C39.89448334 7 38.64738916 6.4606285 36 5 C36 4.34 36 3.68 36 3 C24.12 3 12.24 3 0 3 C0 2.01 0 1.02 0 0 Z " fill="#072240" transform="translate(51,152)"/>
<path d="M0 0 C0 0.99 0 1.98 0 3 C-3.33303391 5.49977543 -4.73303602 6 -9 6 C-9 6.66 -9 7.32 -9 8 C-12.3 7.01 -15.6 6.02 -19 5 C-19.33 5.66 -19.66 6.32 -20 7 C-22.89574234 7.16839208 -25.79157674 7.33477385 -28.6875 7.5 C-29.91243164 7.57154297 -29.91243164 7.57154297 -31.16210938 7.64453125 C-35.11353058 7.86849844 -39.04018757 8.06451833 -43 8 C-43.33 8.66 -43.66 9.32 -44 10 C-44.33 9.67 -44.66 9.34 -45 9 C-46.52519276 9.08937803 -48.04681929 9.24537146 -49.5625 9.4375 C-50.38878906 9.53933594 -51.21507813 9.64117187 -52.06640625 9.74609375 C-52.70449219 9.82988281 -53.34257813 9.91367188 -54 10 C-50.45653782 6.29547136 -48.41195552 5.87090041 -43.29296875 5.75390625 C-42.14892578 5.72103516 -41.00488281 5.68816406 -39.82617188 5.65429688 C-37.41219771 5.59339683 -34.9981306 5.53606957 -32.58398438 5.48242188 C-30.86211914 5.43118164 -30.86211914 5.43118164 -29.10546875 5.37890625 C-28.05512451 5.3538501 -27.00478027 5.32879395 -25.92260742 5.30297852 C-22.93892255 4.99366827 -20.74056257 4.17015816 -18 3 C-16.1875 3.375 -16.1875 3.375 -14 4 C-7.71015465 4.50724559 -4.92439508 3.93951607 0 0 Z " fill="#01111B" transform="translate(176,108)"/>
<path d="M0 0 C0.66 0 1.32 0 2 0 C2 3.96 2 7.92 2 12 C2.94875 12.103125 3.8975 12.20625 4.875 12.3125 C8 13 8 13 10 16 C6.40735548 17.19754817 3.77282526 17.33094958 0 17 C-2.4375 15.5 -2.4375 15.5 -4 13 C-4.50563572 10.0925946 -4.3397013 8.00878294 -4 5 C-3.01 4.34 -2.02 3.68 -1 3 C-0.67 2.01 -0.34 1.02 0 0 Z " fill="#0B74C0" transform="translate(166,123)"/>
<path d="M0 0 C1.051875 0.433125 1.051875 0.433125 2.125 0.875 C3.07375 1.24625 4.0225 1.6175 5 2 C5.85368164 2.34611328 6.70736328 2.69222656 7.58691406 3.04882812 C11.94907475 4.26449179 15.97783351 4.31608372 20.484375 4.34375 C21.82958221 4.3656842 21.82958221 4.3656842 23.20196533 4.38806152 C27.02170972 4.45013331 30.84160789 4.49009802 34.66162109 4.53173828 C37.45688114 4.56537046 40.25179172 4.61047961 43.046875 4.65625 C44.34839508 4.66416565 44.34839508 4.66416565 45.6762085 4.67224121 C51.77432352 4.77432352 51.77432352 4.77432352 54 7 C52.46279297 6.98259766 52.46279297 6.98259766 50.89453125 6.96484375 C49.533856 6.95545978 48.17317876 6.94636023 46.8125 6.9375 C46.13896484 6.92912109 45.46542969 6.92074219 44.77148438 6.91210938 C41.9867485 6.8985253 39.36498789 6.92066792 36.63671875 7.51367188 C33.67568637 8.05981785 31.04941106 8.01766513 28.04296875 7.87890625 C26.37524414 7.80639648 26.37524414 7.80639648 24.67382812 7.73242188 C23.52333984 7.67634766 22.37285156 7.62027344 21.1875 7.5625 C20.01767578 7.51029297 18.84785156 7.45808594 17.64257812 7.40429688 C14.76142726 7.27493908 11.88065085 7.13998535 9 7 C9 6.34 9 5.68 9 5 C8.2575 4.9175 7.515 4.835 6.75 4.75 C3.48778646 3.8603054 2.19045122 2.51496251 0 0 Z " fill="#010810" transform="translate(34,141)"/>
<path d="M0 0 C0.66 0 1.32 0 2 0 C2 2 2 2 -0.375 4.5 C-1.674375 5.7375 -1.674375 5.7375 -3 7 C-3.66 7.66 -4.32 8.32 -5 9 C-7.63903104 9.15350069 -10.23485014 9.22264684 -12.875 9.25 C-21.13250649 9.50187056 -26.87321643 11.77672085 -34 16 C-34.99 16.33 -35.98 16.66 -37 17 C-37 16.34 -37 15.68 -37 15 C-35.0234375 13.5625 -35.0234375 13.5625 -32.375 12 C-31.08722656 11.2265625 -31.08722656 11.2265625 -29.7734375 10.4375 C-24.43472907 7.67039479 -20.05231947 6.82942302 -14.0625 6.75 C-8.23587182 6.43621115 -5.17708931 5.59603855 -1.234375 1.27734375 C-0.82703125 0.85582031 -0.4196875 0.43429688 0 0 Z " fill="#09284B" transform="translate(77,45)"/>
<path d="M0 0 C0.99 0 1.98 0 3 0 C2.83701416 1.00554932 2.67402832 2.01109863 2.50610352 3.04711914 C2.02073787 6.8380285 1.88595508 10.42753353 1.90234375 14.24609375 C1.9037587 14.90207047 1.90517365 15.55804718 1.90663147 16.23390198 C1.91216969 18.30181702 1.92470998 20.36961842 1.9375 22.4375 C1.94252301 23.85090988 1.9470845 25.26432148 1.95117188 26.67773438 C1.96211874 30.11852568 1.97933962 33.55925172 2 37 C1.01 37 0.02 37 -1 37 C-1.02483806 32.6949909 -1.04292512 28.39002049 -1.05493164 24.08496094 C-1.05994045 22.62238843 -1.06674938 21.15982089 -1.07543945 19.69726562 C-1.08765698 17.58722709 -1.09326295 15.47725513 -1.09765625 13.3671875 C-1.10289307 12.09987793 -1.10812988 10.83256836 -1.11352539 9.52685547 C-1.00813747 6.252804 -0.62450226 3.21110848 0 0 Z " fill="#07385D" transform="translate(112,57)"/>
<path d="M0 0 C3 2 3 2 4 5 C4.5024763 9.43854063 4.30188061 11.49057646 2 15.375 C-1.3409029 18.29829004 -2.75616267 18.63824268 -6.99609375 18.85546875 C-9.84349781 19.06083707 -12.34250999 20.00344124 -15 21 C-15 21.66 -15 22.32 -15 23 C-16.65 23.33 -18.3 23.66 -20 24 C-15.95265752 19.48565647 -11.65396195 17.32015797 -5.8125 15.9375 C-1.96090714 15.21947193 -1.96090714 15.21947193 1 13 C1.58189266 10.57478506 1.58189266 10.57478506 1.6875 7.875 C1.790625 6.26625 1.89375 4.6575 2 3 C-1.96 2.67 -5.92 2.34 -10 2 C-7.87433571 -2.25132858 -3.92065481 -0.89848339 0 0 Z " fill="#07395D" transform="translate(147,122)"/>
<path d="M0 0 C0 4.2943198 -1.99844992 5.92131351 -4.828125 9 C-11.3461031 15.00216689 -18.70392783 16.62546319 -27.3125 17.640625 C-29.96519519 17.84729775 -29.96519519 17.84729775 -32 19 C-32 18.34 -32 17.68 -32 17 C-33.32 17 -34.64 17 -36 17 C-36 16.34 -36 15.68 -36 15 C-34.47632813 14.97873047 -34.47632813 14.97873047 -32.921875 14.95703125 C-22.8066841 14.66601759 -12.58205661 13.65895933 -4.8125 6.375 C-2.83771567 4.05340567 -2.83771567 4.05340567 -2 1 C-1.34 0.67 -0.68 0.34 0 0 Z " fill="#041523" transform="translate(192,145)"/>
<path d="M0 0 C0.33 0.66 0.66 1.32 1 2 C-0.75 4.5 -0.75 4.5 -3 7 C-4.32 7 -5.64 7 -7 7 C-7.33 7.66 -7.66 8.32 -8 9 C-8 8.34 -8 7.68 -8 7 C-12.74370739 7.31844332 -17.00188547 7.84261545 -21.4375 9.625 C-22.613125 10.07875 -23.78875 10.5325 -25 11 C-25.66 10.67 -26.32 10.34 -27 10 C-22.375 7 -22.375 7 -19 7 C-19 6.34 -19 5.68 -19 5 C-13.61509359 4.08342019 -8.45769811 3.88861841 -3 4 C-2.67 3.01 -2.34 2.02 -2 1 C-1.34 0.67 -0.68 0.34 0 0 Z " fill="#0C325B" transform="translate(78,57)"/>
<path d="M0 0 C4.95 0.99 4.95 0.99 10 2 C10 3.98 10 5.96 10 8 C6.86501708 9.85776765 4.62528568 10.20140476 1 10 C1.165 9.236875 1.33 8.47375 1.5 7.6875 C2.09145396 4.96403764 2.09145396 4.96403764 2 2 C1.34 1.34 0.68 0.68 0 0 Z " fill="#0A64A4" transform="translate(139,123)"/>
<path d="M0 0 C-2.5155749 1.77871982 -5.03699136 3.54798163 -7.5625 5.3125 C-8.26697266 5.81201172 -8.97144531 6.31152344 -9.69726562 6.82617188 C-13.99760169 9.81857163 -18.10825636 12.11658228 -23 14 C-23 13.01 -23 12.02 -23 11 C-20.734375 9.28125 -20.734375 9.28125 -17.75 7.5 C-13.69893616 5.06903649 -13.69893616 5.06903649 -9.8359375 2.359375 C-6.8724026 0.1650981 -3.4654088 -1.7327044 0 0 Z " fill="#083861" transform="translate(119,100)"/>
<path d="M0 0 C9.76812816 3.15899227 19.69162242 3.37701886 29.5625 0.625 C26.50672314 3.97180322 24.39928619 4.57986216 19.796875 4.828125 C18.30215257 4.8493644 16.80733838 4.86477888 15.3125 4.875 C14.57386719 4.895625 13.83523437 4.91625 13.07421875 4.9375 C7.77639165 4.97487444 4.33861933 3.87810789 -0.4375 1.625 C-4.63366155 1.33560955 -8.35500613 1.63530452 -12.4375 2.625 C-8.88569047 -1.6745589 -5.01510628 -1.89478886 0 0 Z " fill="#072E4C" transform="translate(147.4375,146.375)"/>
<path d="M0 0 C0.54527344 0.28875 1.09054688 0.5775 1.65234375 0.875 C-1.63742433 1.97158936 -3.06069392 1.67453138 -6.34765625 0.875 C-6.34765625 0.215 -6.34765625 -0.445 -6.34765625 -1.125 C-13.15583248 -0.79017166 -17.98879109 0.82168187 -24.0625 3.9140625 C-24.81660156 4.23117188 -25.57070312 4.54828125 -26.34765625 4.875 C-27.00765625 4.545 -27.66765625 4.215 -28.34765625 3.875 C-26.91308297 2.8915504 -25.47488219 1.91339079 -24.03515625 0.9375 C-23.23464844 0.39222656 -22.43414062 -0.15304688 -21.609375 -0.71484375 C-14.43278624 -5.18936627 -7.1656629 -3.52771097 0 0 Z " fill="#083355" transform="translate(137.34765625,45.125)"/>
<path d="M0 0 C0.67546875 0.20496094 1.3509375 0.40992188 2.046875 0.62109375 C2.93890625 0.89050781 3.8309375 1.15992188 4.75 1.4375 C5.63171875 1.70433594 6.5134375 1.97117188 7.421875 2.24609375 C11.59506219 3.46643485 15.2723971 4.15375947 19.640625 4.31640625 C20.71054687 4.35830078 21.78046875 4.40019531 22.8828125 4.44335938 C23.99398437 4.48267578 25.10515625 4.52199219 26.25 4.5625 C27.37664063 4.60568359 28.50328125 4.64886719 29.6640625 4.69335938 C32.44258954 4.79932015 35.22120391 4.90139142 38 5 C37.67 5.99 37.34 6.98 37 8 C34.97924434 8.02734857 32.95837779 8.0465517 30.9375 8.0625 C29.81214844 8.07410156 28.68679687 8.08570313 27.52734375 8.09765625 C20.88032467 7.91363025 14.91863256 6.55026793 8.625 4.5625 C7.90183594 4.34529297 7.17867187 4.12808594 6.43359375 3.90429688 C4.60168552 3.33204036 2.79752795 2.67250172 1 2 C0.67 1.34 0.34 0.68 0 0 Z " fill="#01060D" transform="translate(34,157)"/>
<path d="M0 0 C2.4375 0.8125 2.4375 0.8125 4.4375 2.8125 C4.0625 5.9375 4.0625 5.9375 3.4375 8.8125 C1.4575 9.1425 -0.5225 9.4725 -2.5625 9.8125 C-2.5625 9.1525 -2.5625 8.4925 -2.5625 7.8125 C-3.5525 7.8125 -4.5425 7.8125 -5.5625 7.8125 C-5.78982116 5.00887237 -5.90331872 3.35063483 -4.375 0.9375 C-2.5625 -0.1875 -2.5625 -0.1875 0 0 Z M-2.5625 1.8125 C-2.5625 2.8025 -2.5625 3.7925 -2.5625 4.8125 C-0.9125 5.1425 0.7375 5.4725 2.4375 5.8125 C2.7675 5.1525 3.0975 4.4925 3.4375 3.8125 C2.7775 3.1525 2.1175 2.4925 1.4375 1.8125 C0.1175 1.8125 -1.2025 1.8125 -2.5625 1.8125 Z " fill="#0A325E" transform="translate(44.5625,99.1875)"/>
<path d="M0 0 C2.7479865 2.23273903 3.89632752 3.39092417 4.5 6.9375 C3.87779483 10.74850667 2.79396458 12.35706053 0 15 C-2.4375 16 -2.4375 16 -5 16 C-7.5 14.625 -7.5 14.625 -10 13 C-13.38373646 12.03321816 -14.60651463 11.86883821 -18 13 C-17.67 12.01 -17.34 11.02 -17 10 C-13.6875 9.8125 -13.6875 9.8125 -10 10 C-9.505 10.515625 -9.01 11.03125 -8.5 11.5625 C-8.005 12.036875 -7.51 12.51125 -7 13 C-2.65490784 12.9493338 -2.65490784 12.9493338 1 11 C1.17423601 7.16680771 0.87803368 3.73164314 0 0 Z " fill="#020B14" transform="translate(73,95)"/>
<path d="M0 0 C0.66 0.33 1.32 0.66 2 1 C2 3.31 2 5.62 2 8 C3.32 8 4.64 8 6 8 C5 11 5 11 2.5625 12.75 C1.2940625 13.36875 1.2940625 13.36875 0 14 C-0.66 13.67 -1.32 13.34 -2 13 C-1.85851011 11.3954444 -1.71164314 9.79136233 -1.5625 8.1875 C-1.48128906 7.29417969 -1.40007812 6.40085938 -1.31640625 5.48046875 C-1 3 -1 3 0 0 Z " fill="#081D38" transform="translate(68,173)"/>
<path d="M0 0 C0.83660156 0.144375 1.67320313 0.28875 2.53515625 0.4375 C11.48669444 1.86498782 19.94831147 2.22819383 29 2 C29 2.66 29 3.32 29 4 C24.91672643 4.0580772 20.83355917 4.09362249 16.75 4.125 C15.01169922 4.15013672 15.01169922 4.15013672 13.23828125 4.17578125 C12.12324219 4.18222656 11.00820312 4.18867188 9.859375 4.1953125 C8.83295898 4.20578613 7.80654297 4.21625977 6.74902344 4.22705078 C3.98015712 3.99836111 2.35581208 3.4243299 0 2 C0 1.34 0 0.68 0 0 Z " fill="#0B2D4D" transform="translate(98,162)"/>
<path d="M0 0 C0.66 0.33 1.32 0.66 2 1 C1.01 3.64 0.02 6.28 -1 9 C-3.31 9 -5.62 9 -8 9 C-8 7.35 -8 5.7 -8 4 C-7.236875 3.896875 -6.47375 3.79375 -5.6875 3.6875 C-2.82940576 2.95635961 -1.84257115 2.23048087 0 0 Z " fill="#095DA9" transform="translate(111,148)"/>
<path d="M0 0 C1.65 0.33 3.3 0.66 5 1 C5.46153846 9 5.46153846 9 3.875 12.4375 C1.43560806 14.47032662 -0.95578511 15.18820936 -4 16 C-3.57847656 15.48050781 -3.15695313 14.96101562 -2.72265625 14.42578125 C1.43428979 9.29853692 1.43428979 9.29853692 3 3 C2.01 3.33 1.02 3.66 0 4 C0 2.68 0 1.36 0 0 Z " fill="#08385B" transform="translate(181,131)"/>
<path d="M0 0 C0.66 0.33 1.32 0.66 2 1 C0.125 3.5625 0.125 3.5625 -3 6 C-5.27734375 5.93359375 -5.27734375 5.93359375 -7.8125 5.5 C-12.01820072 4.79590661 -13.94497975 5.11703561 -17.5 7.5 C-18.1290625 7.9846875 -18.758125 8.469375 -19.40625 8.96875 C-20.19515625 9.47921875 -20.19515625 9.47921875 -21 10 C-21.66 9.67 -22.32 9.34 -23 9 C-13.99397094 1.48858853 -13.99397094 1.48858853 -7.5625 1.6875 C-6.35787109 1.81705078 -6.35787109 1.81705078 -5.12890625 1.94921875 C-2.69455583 2.21120336 -2.69455583 2.21120336 0 0 Z " fill="#02101A" transform="translate(148,85)"/>
<path d="M0 0 C2 2 2 2 2.125 5.125 C2.08375 6.07375 2.0425 7.0225 2 8 C1.401875 7.34 0.80375 6.68 0.1875 6 C-1.87501834 3.6626154 -1.87501834 3.6626154 -5 4 C-7.20142332 6.4390706 -7.20142332 6.4390706 -9 9 C-8.67 6.36 -8.34 3.72 -8 1 C-5.03104944 0.01034981 -3.0913386 -0.23779528 0 0 Z " fill="#0E68A3" transform="translate(145,70)"/>
<path d="M0 0 C0.7425 0.45375 1.485 0.9075 2.25 1.375 C5.37962129 2.96570586 8.34848282 3.44643243 11.8125 3.9375 C17.40469469 4.75433743 22.00323861 6.40067463 27 9 C23.34545589 10.21818137 22.10165815 9.30133425 18.671875 7.90234375 C12.96551137 5.97519463 6.91649996 5.08623241 1 4 C0.67 2.68 0.34 1.36 0 0 Z " fill="#0A3A5C" transform="translate(139,47)"/>
<path d="M0 0 C0.33 1.32 0.66 2.64 1 4 C0.49210937 4.27972656 -0.01578125 4.55945313 -0.5390625 4.84765625 C-6.20515831 8.14757347 -11.015237 12.03047399 -14 18 C-14.66 18 -15.32 18 -16 18 C-13.95505209 11.49334757 -9.16558379 8.10597686 -4 4 C-2.64852862 2.68505488 -1.30887458 1.35735142 0 0 Z " fill="#081E3A" transform="translate(31,76)"/>
<path d="M0 0 C1.3357457 3.77371512 0.72408671 6.85831347 0.0625 10.75 C-0.13214844 11.92046875 -0.32679687 13.0909375 -0.52734375 14.296875 C-0.68332031 15.18890625 -0.83929688 16.0809375 -1 17 C0.65 16.67 2.3 16.34 4 16 C3.67 16.66 3.34 17.32 3 18 C-0.0625 18.625 -0.0625 18.625 -3 19 C-3.31461385 11.90370975 -3.44572039 6.31715405 0 0 Z " fill="#0A407A" transform="translate(72,163)"/>
<path d="M0 0 C3 0 3 0 4.53515625 1.49609375 C5.03917969 2.13675781 5.54320312 2.77742187 6.0625 3.4375 C8.1671333 6.15875193 8.1671333 6.15875193 11 8 C11.625 10.0625 11.625 10.0625 12 12 C6.46721442 10.65871865 3.21578635 6.44835 0 2 C0 1.34 0 0.68 0 0 Z " fill="#071F3F" transform="translate(22,145)"/>
<path d="M0 0 C0 3 0 3 -1.5625 4.625 C-4.68931762 6.38884583 -7.44958502 6.57150164 -11 7 C-13.01416562 7.62256028 -15.02015519 8.27566653 -17 9 C-17 9.66 -17 10.32 -17 11 C-18.65 11.33 -20.3 11.66 -22 12 C-17.38029091 6.84724755 -12.39465378 5.02168419 -5.8359375 3.5390625 C-3.45811685 2.84089388 -1.81559047 1.66429127 0 0 Z " fill="#010E17" transform="translate(149,134)"/>
<path d="M0 0 C0.66 0 1.32 0 2 0 C1.83628906 0.68449219 1.67257813 1.36898437 1.50390625 2.07421875 C0.93552966 5.3743278 0.90369233 8.46554069 0.9375 11.8125 C0.95103516 13.55466797 0.95103516 13.55466797 0.96484375 15.33203125 C0.97644531 16.21246094 0.98804688 17.09289062 1 18 C0.34 18 -0.32 18 -1 18 C-2.27959591 15.44080818 -2.16816536 13.54515972 -2.1875 10.6875 C-2.20167969 9.74261719 -2.21585938 8.79773438 -2.23046875 7.82421875 C-1.98824335 4.85593118 -1.24026607 2.69132835 0 0 Z " fill="#072447" transform="translate(23,99)"/>
<path d="M0 0 C0 3 0 3 -1.125 4.625 C-3.80936413 6.5935337 -5.67388295 6.87207242 -9 7 C-11.5912053 6.26344062 -13.58650978 5.27773012 -16 4 C-16.33 3.34 -16.66 2.68 -17 2 C-16.01 2.33 -15.02 2.66 -14 3 C-12.17037564 3.14328384 -10.33498763 3.22040343 -8.5 3.25 C-7.06140625 3.28867188 -7.06140625 3.28867188 -5.59375 3.328125 C-2.63556747 2.95389709 -1.79886927 2.30935919 0 0 Z " fill="#042135" transform="translate(180,136)"/>
<path d="M0 0 C0.99 0 1.98 0 3 0 C2.02703346 2.65354511 1.34207577 3.79877896 -1.125 5.25 C-6.14862303 6.56051035 -10.29304306 6.85347847 -15 4.5 C-15.66 4.005 -16.32 3.51 -17 3 C-16.67 2.34 -16.34 1.68 -16 1 C-14.948125 1.7425 -14.948125 1.7425 -13.875 2.5 C-9.94248175 4.55174865 -6.98806654 4.26865764 -2.6875 3.6875 C-2.130625 3.460625 -1.57375 3.23375 -1 3 C-0.67 2.01 -0.34 1.02 0 0 Z " fill="#0B3363" transform="translate(52,107)"/>
<path d="M0 0 C0.33 0.66 0.66 1.32 1 2 C0.20335937 1.97679688 -0.59328125 1.95359375 -1.4140625 1.9296875 C-9.394974 1.76151408 -9.394974 1.76151408 -17 4 C-12.79414838 -0.68652038 -12.79414838 -0.68652038 -9.625 -1.9375 C-6.09848052 -2.02146475 -3.29874393 -1.20531028 0 0 Z " fill="#09446B" transform="translate(148,66)"/>
<path d="M0 0 C-1.2065625 0.185625 -1.2065625 0.185625 -2.4375 0.375 C-3.283125 0.58125 -4.12875 0.7875 -5 1 C-5.33 1.66 -5.66 2.32 -6 3 C-6 2.34 -6 1.68 -6 1 C-10.74370739 1.31844332 -15.00188547 1.84261545 -19.4375 3.625 C-20.613125 4.07875 -21.78875 4.5325 -23 5 C-23.66 4.67 -24.32 4.34 -25 4 C-18.68856456 0.00705105 -7.18449903 -3.59224952 0 0 Z " fill="#010810" transform="translate(76,63)"/>
<path d="M0 0 C4.96466917 1.16815745 8.2384416 2.35242821 12 6 C12 6.66 12 7.32 12 8 C6.73610189 7.68097587 3.55597551 4.60721435 0 1 C0 0.67 0 0.34 0 0 Z " fill="#082B4F" transform="translate(88,148)"/>
<path d="M0 0 C2.31 0 4.62 0 7 0 C6.67 1.32 6.34 2.64 6 4 C3.36 4 0.72 4 -2 4 C-1.34 2.68 -0.68 1.36 0 0 Z " fill="#0C71BD" transform="translate(140,147)"/>
<path d="M0 0 C0.825 0.495 1.65 0.99 2.5 1.5 C7.62462633 3.69626843 12.62412142 3.79195953 18 2 C16.6875 4.0625 16.6875 4.0625 14 6 C9.5711259 6.25194194 4.76826635 6.37782112 1.16015625 3.56640625 C0 2 0 2 0 0 Z " fill="#020912" transform="translate(34,109)"/>
<path d="M0 0 C3.3 0 6.6 0 10 0 C10 0.99 10 1.98 10 3 C8.9275 2.979375 7.855 2.95875 6.75 2.9375 C3.85209576 2.9857984 1.71387859 3.13155885 -1 4 C-0.67 2.68 -0.34 1.36 0 0 Z " fill="#09294E" transform="translate(39,92)"/>
<path d="M0 0 C0 0.66 0 1.32 0 2 C-1.93625098 2.98163422 -3.87404539 3.96022454 -5.8125 4.9375 C-7.43091797 5.75541016 -7.43091797 5.75541016 -9.08203125 6.58984375 C-12 8 -12 8 -15 9 C-15 8.34 -15 7.68 -15 7 C-12.91796875 5.52734375 -12.91796875 5.52734375 -10.1875 3.9375 C-9.29417969 3.41027344 -8.40085937 2.88304687 -7.48046875 2.33984375 C-4.9465226 0.97111378 -2.91111909 0 0 0 Z " fill="#081E3B" transform="translate(55,53)"/>
<path d="M0 0 C0.66 0.33 1.32 0.66 2 1 C2 2.32 2 3.64 2 5 C1.34 5 0.68 5 0 5 C0.061875 5.78375 0.12375 6.5675 0.1875 7.375 C0.125625 8.24125 0.06375 9.1075 0 10 C-3 12 -3 12 -5.1875 11.625 C-5.785625 11.41875 -6.38375 11.2125 -7 11 C-5.824375 10.2265625 -5.824375 10.2265625 -4.625 9.4375 C-1.44405752 6.4837677 -0.88506307 4.18393452 0 0 Z " fill="#08385C" transform="translate(135,124)"/>
<path d="M0 0 C0.66 0.33 1.32 0.66 2 1 C1.67 2.32 1.34 3.64 1 5 C0.34 5 -0.32 5 -1 5 C-2.07525194 7.65228812 -3.09456151 10.28368454 -4 13 C-4.66 13 -5.32 13 -6 13 C-3.10933941 3.40546697 -3.10933941 3.40546697 0 0 Z " fill="#081E3C" transform="translate(38,62)"/>
<path d="M0 0 C0.66 0.33 1.32 0.66 2 1 C0.47793991 3.62901288 -0.84365964 5.84365964 -3 8 C-5.65537372 8.56520003 -8.29144713 8.73788198 -11 9 C-8 7 -8 7 -4 7 C-4 6.01 -4 5.02 -4 4 C-3.34 4 -2.68 4 -2 4 C-2 3.34 -2 2.68 -2 2 C-1.34 2 -0.68 2 0 2 C0 1.34 0 0.68 0 0 Z " fill="#0A4E86" transform="translate(155,159)"/>
<path d="M0 0 C0.66 0.33 1.32 0.66 2 1 C1.01 2.485 1.01 2.485 0 4 C-0.99 4 -1.98 4 -3 4 C-3.20625 4.639375 -3.4125 5.27875 -3.625 5.9375 C-5 8 -5 8 -8.125 8.75 C-9.548125 8.87375 -9.548125 8.87375 -11 9 C-7.67149253 5.40521193 -4.01028669 2.77635232 0 0 Z " fill="#0A355D" transform="translate(89,107)"/>
<path d="M0 0 C0.99 0 1.98 0 3 0 C1.34784004 3.57967992 -0.73124352 6.77982952 -3 10 C-3.33 10 -3.66 10 -4 10 C-4.39801392 6.5173782 -4.12373826 5.19200764 -2.1875 2.1875 C-1.465625 1.465625 -0.74375 0.74375 0 0 Z " fill="#08274B" transform="translate(48,67)"/>
<path d="M0 0 C3.375 0.3125 3.375 0.3125 7 1 C7.66 1.99 8.32 2.98 9 4 C3.375 5.125 3.375 5.125 0 4 C0 2.68 0 1.36 0 0 Z " fill="#0E7BC8" transform="translate(167,135)"/>
<path d="M0 0 C0.33 0 0.66 0 1 0 C1.31985731 6.71700347 0.4793824 11.75726932 -2 18 C-2.33 18 -2.66 18 -3 18 C-2.19500136 11.96251023 -1.11517502 5.98729887 0 0 Z " fill="#072B47" transform="translate(196,127)"/>
<path d="M0 0 C0.66 0.33 1.32 0.66 2 1 C0.92807816 2.3218362 -0.15802695 3.63217927 -1.25 4.9375 C-1.85328125 5.66839844 -2.4565625 6.39929688 -3.078125 7.15234375 C-5.10741134 9.10326334 -6.254407 9.61731779 -9 10 C-4.9721871 2.09355247 -4.9721871 2.09355247 0 0 Z " fill="#0D60A4" transform="translate(119,111)"/>
<path d="M0 0 C2.625 0.375 2.625 0.375 5 1 C3 3 3 3 0 4 C0.33 4.66 0.66 5.32 1 6 C1.99 5.67 2.98 5.34 4 5 C4.33 5.66 4.66 6.32 5 7 C3.02 7 1.04 7 -1 7 C-1.625 4.625 -1.625 4.625 -2 2 C-1.34 1.34 -0.68 0.68 0 0 Z " fill="#01070C" transform="translate(42,99)"/>
<path d="M0 0 C1.65 0 3.3 0 5 0 C2.31941902 3.57410797 -0.42589203 6.31941902 -4 9 C-3.67 7.02 -3.34 5.04 -3 3 C-2.01 3 -1.02 3 0 3 C0 2.01 0 1.02 0 0 Z " fill="#061D38" transform="translate(29,90)"/>
<path d="M0 0 C2.67613232 2.4977235 4.54224712 4.63595489 6 8 C6.33 8.66 6.66 9.32 7 10 C4.83125748 9.49396008 3.00032373 9.00016187 1 8 C0.40644386 5.35139573 0.25790731 2.70802678 0 0 Z " fill="#051B37" transform="translate(30,137)"/>
<path d="M0 0 C0.8125 1.6875 0.8125 1.6875 1 4 C-1.62685275 7.22727623 -3.74780225 9.52753358 -8 10 C-7.401875 9.443125 -6.80375 8.88625 -6.1875 8.3125 C-4.01074085 6.01135462 -2.55742513 3.74403476 -1 1 C-0.67 0.67 -0.34 0.34 0 0 Z " fill="#063055" transform="translate(117,121)"/>
<path d="M0 0 C-0.5625 1.9375 -0.5625 1.9375 -2 4 C-5.625 4.75 -5.625 4.75 -9 5 C-6.3784932 1.13015663 -4.82784953 0 0 0 Z " fill="#093F6F" transform="translate(109,130)"/>
<path d="M0 0 C0.99 0 1.98 0 3 0 C2.40380045 4.86896303 1.43023178 9.32790951 0 14 C-0.33 14 -0.66 14 -1 14 C-1.08333357 9.1666528 -0.95261487 4.76307437 0 0 Z " fill="#0D5490" transform="translate(112,57)"/>
<path d="M0 0 C3.375 -0.1875 3.375 -0.1875 7 0 C7.66 0.99 8.32 1.98 9 3 C7.01432292 2.96744792 5.02864583 2.93489583 3.04296875 2.90234375 C0.79694539 2.91736783 0.79694539 2.91736783 -2 4 C-1.34 2.68 -0.68 1.36 0 0 Z " fill="#051F3C" transform="translate(84,65)"/>
<path d="M0 0 C-1.78710586 0.86366822 -3.5798465 1.71568594 -5.375 2.5625 C-6.37273437 3.03816406 -7.37046875 3.51382813 -8.3984375 4.00390625 C-9.25695312 4.33261719 -10.11546875 4.66132812 -11 5 C-11.66 4.67 -12.32 4.34 -13 4 C-9.26425609 0.59388055 -5.05951744 -2.52975872 0 0 Z " fill="#09497E" transform="translate(122,45)"/>
<path d="M0 0 C10.50909091 4.01818182 10.50909091 4.01818182 12 7 C9.69 6.67 7.38 6.34 5 6 C4.67 5.01 4.34 4.02 4 3 C1.99983534 1.79117904 1.99983534 1.79117904 0 1 C0 0.67 0 0.34 0 0 Z " fill="#010C15" transform="translate(172,84)"/>
<path d="M0 0 C0.66 1.32 1.32 2.64 2 4 C3.65 4 5.3 4 7 4 C7.33 3.34 7.66 2.68 8 2 C8 2.99 8 3.98 8 5 C5.6739143 5.38063221 3.33944736 5.71269945 1 6 C0 5 0 5 -0.0625 2.4375 C-0.041875 1.633125 -0.02125 0.82875 0 0 Z " fill="#093D62" transform="translate(167,130)"/>
<path d="M0 0 C2 1.625 2 1.625 4 4 C4.25 7.25 4.25 7.25 4 10 C3.34 10 2.68 10 2 10 C1.34 6.7 0.68 3.4 0 0 Z " fill="#08233F" transform="translate(73,95)"/>
<path d="M0 0 C1.65 0.33 3.3 0.66 5 1 C5.33 2.32 5.66 3.64 6 5 C5.34 5 4.68 5 4 5 C4 4.34 4 3.68 4 3 C2.02 3.33 0.04 3.66 -2 4 C-1.34 2.68 -0.68 1.36 0 0 Z " fill="#07314F" transform="translate(170,126)"/>
<path d="M0 0 C1.485 0.99 1.485 0.99 3 2 C5.96842658 2.45915507 5.96842658 2.45915507 9.1875 2.625 C10.27417969 2.69976562 11.36085938 2.77453125 12.48046875 2.8515625 C13.72763672 2.92503906 13.72763672 2.92503906 15 3 C15 3.33 15 3.66 15 4 C10.38 4 5.76 4 1 4 C0.67 2.68 0.34 1.36 0 0 Z " fill="#072850" transform="translate(24,117)"/>
<path d="M0 0 C0 0.66 0 1.32 0 2 C-6.625 6 -6.625 6 -10 6 C-9.67 5.01 -9.34 4.02 -9 3 C-2.88888889 0 -2.88888889 0 0 0 Z " fill="#041E37" transform="translate(98,113)"/>
<path d="M0 0 C1.46726798 3.81489674 0.43336419 6.29011622 -1 10 C-1.66 9.67 -2.32 9.34 -3 9 C-1.125 2.25 -1.125 2.25 0 0 Z " fill="#07274E" transform="translate(72,163)"/>
<path d="M0 0 C2.64 0.66 5.28 1.32 8 2 C8 2.66 8 3.32 8 4 C6.02 4 4.04 4 2 4 C1.34 2.68 0.68 1.36 0 0 Z " fill="#093259" transform="translate(99,147)"/>
<path d="M0 0 C-2.93828597 2.50298434 -5.17902761 3.46930939 -9 4 C-9 3.01 -9 2.02 -9 1 C-2.25 -1.125 -2.25 -1.125 0 0 Z " fill="#093D69" transform="translate(127,147)"/>
<path d="M0 0 C0 0.33 0 0.66 0 1 C-1.8253125 1.2165625 -1.8253125 1.2165625 -3.6875 1.4375 C-6.82670377 1.82780953 -9.9075134 2.32351856 -13 3 C-9.331148 -1.44124189 -5.30968409 -1.36534734 0 0 Z " fill="#0B3659" transform="translate(148,146)"/>
<path d="M0 0 C0.66 0.33 1.32 0.66 2 1 C0.875 2.9375 0.875 2.9375 -1 5 C-4.1875 5.75 -4.1875 5.75 -7 6 C-4.74259377 3.66475218 -2.7194239 1.81294927 0 0 Z " fill="#09426B" transform="translate(123,85)"/>
<path d="M0 0 C0.94875 0.04125 1.8975 0.0825 2.875 0.125 C3.205 0.785 3.535 1.445 3.875 2.125 C2.76125 1.9703125 2.76125 1.9703125 1.625 1.8125 C-1.37572867 1.8504586 -1.37572867 1.8504586 -3.4375 4.625 C-4.2728125 5.8625 -4.2728125 5.8625 -5.125 7.125 C-5.25 4.75 -5.25 4.75 -5.125 2.125 C-3.125 0.125 -3.125 0.125 0 0 Z " fill="#02111A" transform="translate(141.125,71.875)"/>
<path d="M0 0 C3.96 1.98 3.96 1.98 8 4 C7.01 4.99 6.02 5.98 5 7 C4.67 6.01 4.34 5.02 4 4 C1.98491642 3.26676204 1.98491642 3.26676204 0 3 C0 2.01 0 1.02 0 0 Z " fill="#063157" transform="translate(101,46)"/>
<path d="M0 0 C1.9451 2.91765 2.45276317 4.62537285 3 8 C2.01 8.495 2.01 8.495 1 9 C-1.09230769 4.56923077 -1.09230769 4.56923077 -0.625 1.6875 C-0.41875 1.130625 -0.2125 0.57375 0 0 Z " fill="#082041" transform="translate(20,136)"/>
<path d="M0 0 C3 0 3 0 5 1 C3.25 3.0625 3.25 3.0625 1 5 C-1.25 4.75 -1.25 4.75 -3 4 C-2.01 3.67 -1.02 3.34 0 3 C0 2.01 0 1.02 0 0 Z " fill="#083157" transform="translate(94,102)"/>
<path d="M0 0 C0.66 0.33 1.32 0.66 2 1 C0.8803014 2.00593243 -0.2459412 3.0045849 -1.375 4 C-2.00148438 4.556875 -2.62796875 5.11375 -3.2734375 5.6875 C-5 7 -5 7 -7 7 C-5.66667905 3.00003714 -3.5042173 2.16217663 0 0 Z " fill="#083C79" transform="translate(46,58)"/>
<path d="" fill="#000000" transform="translate(0,0)"/>
<path d="" fill="#000000" transform="translate(0,0)"/>
<path d="" fill="#000000" transform="translate(0,0)"/>
<path d="" fill="#000000" transform="translate(0,0)"/>
<path d="" fill="#000000" transform="translate(0,0)"/>
<path d="" fill="#000000" transform="translate(0,0)"/>
<path d="M0 0 C2 1 2 1 2 1 Z " fill="#000000" transform="translate(91,101)"/>
<path d="" fill="#000000" transform="translate(0,0)"/>
<path d="" fill="#000000" transform="translate(0,0)"/>
<path d="" fill="#000000" transform="translate(0,0)"/>
<path d="" fill="#000000" transform="translate(0,0)"/>
<path d="" fill="#000000" transform="translate(0,0)"/>
<path d="" fill="#000000" transform="translate(0,0)"/>
<path d="" fill="#000000" transform="translate(0,0)"/>
<path d="" fill="#000000" transform="translate(0,0)"/>
<path d="" fill="#000000" transform="translate(0,0)"/>
<path d="" fill="#000000" transform="translate(0,0)"/>
<path d="" fill="#000000" transform="translate(0,0)"/>
<path d="" fill="#000000" transform="translate(0,0)"/>
<path d="" fill="#000000" transform="translate(0,0)"/>
<path d="" fill="#000000" transform="translate(0,0)"/>
<path d="" fill="#000000" transform="translate(0,0)"/>
<path d="" fill="#000000" transform="translate(0,0)"/>
<path d="" fill="#000000" transform="translate(0,0)"/>
<path d="" fill="#000000" transform="translate(0,0)"/>
<path d="" fill="#000000" transform="translate(0,0)"/>
<path d="" fill="#000000" transform="translate(0,0)"/>
<path d="" fill="#000000" transform="translate(0,0)"/>
<path d="" fill="#000000" transform="translate(0,0)"/>
<path d="" fill="#000000" transform="translate(0,0)"/>
<path d="" fill="#000000" transform="translate(0,0)"/>
<path d="" fill="#000000" transform="translate(0,0)"/>
<path d="" fill="#000000" transform="translate(0,0)"/>
<path d="" fill="#000000" transform="translate(0,0)"/>
<path d="" fill="#000000" transform="translate(0,0)"/>
<path d="" fill="#000000" transform="translate(0,0)"/>
<path d="" fill="#000000" transform="translate(0,0)"/>
<path d="" fill="#000000" transform="translate(0,0)"/>
<path d="" fill="#000000" transform="translate(0,0)"/>
<path d="" fill="#000000" transform="translate(0,0)"/>
<path d="" fill="#000000" transform="translate(0,0)"/>
<path d="" fill="#000000" transform="translate(0,0)"/>
<path d="" fill="#000000" transform="translate(0,0)"/>
<path d="" fill="#000000" transform="translate(0,0)"/>
<path d="" fill="#000000" transform="translate(0,0)"/>
<path d="" fill="#000000" transform="translate(0,0)"/>
<path d="" fill="#000000" transform="translate(0,0)"/>
<path d="" fill="#000000" transform="translate(0,0)"/>
<path d="" fill="#000000" transform="translate(0,0)"/>
<path d="" fill="#000000" transform="translate(0,0)"/>
<path d="" fill="#000000" transform="translate(0,0)"/>
<path d="" fill="#000000" transform="translate(0,0)"/>
<path d="" fill="#000000" transform="translate(0,0)"/>
<path d="" fill="#000000" transform="translate(0,0)"/>
<path d="" fill="#000000" transform="translate(0,0)"/>
</svg>
